<svg width="100" height="100" viewBox="0 0 100 100" fill="none" xmlns="http://www.w3.org/2000/svg">
<circle cx="3.48837" cy="3.48837" r="3.48837" fill="#222832"/>
<circle cx="3.48837" cy="22.0931" r="3.48837" fill="#222832"/>
<circle cx="3.48837" cy="40.6976" r="3.48837" fill="#222832"/>
<circle cx="3.48837" cy="59.3023" r="3.48837" fill="#222832"/>
<circle cx="3.48837" cy="77.9071" r="3.48837" fill="#222832"/>
<circle cx="3.48837" cy="96.5116" r="3.48837" fill="#222832"/>
<circle cx="22.0931" cy="3.48837" r="3.48837" fill="#222832"/>
<circle cx="22.0931" cy="22.0931" r="3.48837" fill="#222832"/>
<circle cx="22.0931" cy="40.6976" r="3.48837" fill="#222832"/>
<circle cx="22.0931" cy="59.3023" r="3.48837" fill="#222832"/>
<circle cx="22.0931" cy="77.9071" r="3.48837" fill="#222832"/>
<circle cx="22.0931" cy="96.5116" r="3.48837" fill="#222832"/>
<circle cx="40.6977" cy="3.48837" r="3.48837" fill="#222832"/>
<circle cx="40.6977" cy="22.0931" r="3.48837" fill="#222832"/>
<circle cx="40.6977" cy="40.6976" r="3.48837" fill="#222832"/>
<circle cx="40.6977" cy="59.3023" r="3.48837" fill="#222832"/>
<circle cx="40.6977" cy="77.9071" r="3.48837" fill="#222832"/>
<circle cx="40.6977" cy="96.5116" r="3.48837" fill="#222832"/>
<circle cx="59.3023" cy="3.48837" r="3.48837" fill="#222832"/>
<circle cx="59.3023" cy="22.0931" r="3.48837" fill="#222832"/>
<circle cx="59.3023" cy="40.6976" r="3.48837" fill="#222832"/>
<circle cx="59.3023" cy="59.3023" r="3.48837" fill="#222832"/>
<circle cx="59.3023" cy="77.9071" r="3.48837" fill="#222832"/>
<circle cx="59.3023" cy="96.5116" r="3.48837" fill="#222832"/>
<circle cx="77.907" cy="3.48837" r="3.48837" fill="#222832"/>
<circle cx="77.907" cy="22.0931" r="3.48837" fill="#222832"/>
<circle cx="77.907" cy="40.6976" r="3.48837" fill="#222832"/>
<circle cx="77.907" cy="59.3023" r="3.48837" fill="#222832"/>
<circle cx="77.907" cy="77.9071" r="3.48837" fill="#222832"/>
<circle cx="77.907" cy="96.5116" r="3.48837" fill="#222832"/>
<circle cx="96.5116" cy="3.48837" r="3.48837" fill="#222832"/>
<circle cx="96.5116" cy="22.0931" r="3.48837" fill="#222832"/>
<circle cx="96.5116" cy="40.6976" r="3.48837" fill="#222832"/>
<circle cx="96.5116" cy="59.3023" r="3.48837" fill="#222832"/>
<circle cx="96.5116" cy="77.9071" r="3.48837" fill="#222832"/>
<circle cx="96.5116" cy="96.5116" r="3.48837" fill="#222832"/>
</svg>
