<svg width="128" height="134" viewBox="0 0 128 134" fill="none" xmlns="http://www.w3.org/2000/svg">
<path d="M118.068 20.2698C117.992 20.023 117.914 19.7582 117.818 19.4948C114.948 11.1599 105.406 3.33989 96.6966 2.22499C88.412 1.16757 84.1356 6.60627 86.6789 14.3166C86.7549 14.5634 86.849 14.8089 86.9447 15.0723C89.9674 23.0524 99.034 30.4397 107.395 31.744C115.628 33.0581 120.34 28.019 118.068 20.2698Z" fill="url(#paint0_linear)"/>
<path d="M86.996 5.30513L9.72693 112.843C8.89685 113.99 8.96832 115.863 10.1006 118.196C10.1689 118.354 10.2554 118.51 10.3434 118.683C13.0861 123.819 19.7508 129.197 25.3397 130.792C28.1991 131.603 30.2495 131.283 31.241 130.106L116.487 29.1995C114.603 31.4386 111.284 32.4693 107.013 31.7847C98.6782 30.472 89.6126 23.0568 86.5695 15.0903C86.4752 14.8447 86.3794 14.581 86.3033 14.334C85.0889 10.6343 85.4351 7.48344 86.996 5.30513Z" fill="url(#paint1_linear)"/>
<g style="mix-blend-mode:screen">
<path d="M67.5209 72.0743C47.6141 95.4364 35.522 113.754 38.0417 115.889C40.5613 118.023 57.2963 103.607 77.9869 80.8705C102.194 54.2519 122.317 26.8293 118.954 24.0199C115.554 21.1953 90.808 44.7324 67.5209 72.0743Z" fill="url(#paint2_radial)"/>
</g>
<path d="M88.0232 4.57642C88.0232 4.57642 87.9084 4.72976 87.6788 5.03625C87.4855 5.33991 87.1955 5.79538 86.9389 6.42862C86.3864 7.66211 86.1324 9.61179 86.5772 11.8317C86.7823 12.952 87.1749 14.1298 87.7323 15.3128C88.2974 16.5854 88.9925 17.6675 89.7919 18.9038C91.4346 21.2467 93.5475 23.5349 95.9747 25.4379C97.1717 26.4087 98.4518 27.2828 99.759 28.0466C101.083 28.7911 102.404 29.4997 103.76 29.9891C105.102 30.5158 106.45 30.8977 107.733 31.1584C109.068 31.3969 110.261 31.4662 111.423 31.3756C113.709 31.1973 115.499 30.3364 116.458 29.3778C116.95 28.9246 117.297 28.5007 117.51 28.2135C117.721 27.9084 117.817 27.7387 117.817 27.7387C117.817 27.7387 117.741 27.925 117.587 28.2617C117.415 28.5997 117.164 29.0882 116.699 29.6295C115.823 30.7079 114.035 32.0197 111.544 32.3763C110.338 32.5786 108.915 32.5992 107.552 32.471C106.131 32.2933 104.665 32.0289 103.195 31.4942C100.263 30.5324 97.399 28.8619 94.8159 26.8448C93.5584 25.8066 92.3507 24.7104 91.2806 23.5132C90.1773 22.3548 89.2628 21.0553 88.4225 19.7681C87.62 18.4959 86.9141 17.0721 86.4973 15.824C86.0017 14.5099 85.6891 13.1995 85.549 11.9839C85.2492 9.53632 85.8963 7.48383 86.597 6.27485C86.9458 5.65245 87.3326 5.26159 87.5834 4.98952C87.8872 4.69529 88.0232 4.57642 88.0232 4.57642Z" fill="url(#paint3_linear)"/>
<defs>
<linearGradient id="paint0_linear" x1="103.628" y1="32.4893" x2="101.24" y2="1.5566" gradientUnits="userSpaceOnUse">
<stop stop-color="#DADEE1"/>
<stop offset="0.211" stop-color="#BDBEC6"/>
<stop offset="0.671" stop-color="#726D81"/>
<stop offset="1" stop-color="#3A304C"/>
</linearGradient>
<linearGradient id="paint1_linear" x1="72.6709" y1="81.0382" x2="44.2399" y2="59.7447" gradientUnits="userSpaceOnUse">
<stop stop-color="#ABA5B5"/>
<stop offset="0.1138" stop-color="#9790A4"/>
<stop offset="0.2995" stop-color="#706783"/>
<stop offset="0.6718" stop-color="#261E2E"/>
<stop offset="0.7156" stop-color="#2B2434"/>
<stop offset="0.7716" stop-color="#3B3343"/>
<stop offset="0.8343" stop-color="#554E5E"/>
<stop offset="0.9018" stop-color="#797282"/>
<stop offset="0.9724" stop-color="#A6A1B1"/>
<stop offset="1" stop-color="#BAB5C5"/>
</linearGradient>
<radialGradient id="paint2_radial" cx="0" cy="0" r="1" gradientUnits="userSpaceOnUse" gradientTransform="translate(78.4866 69.9485) rotate(-139.633) scale(7.74489 55.7973)">
<stop stop-color="#868990"/>
<stop offset="0.4497" stop-color="#444549"/>
<stop offset="0.8199" stop-color="#131314"/>
<stop offset="1"/>
</radialGradient>
<linearGradient id="paint3_linear" x1="96.1012" y1="28.0622" x2="104.236" y2="13.1305" gradientUnits="userSpaceOnUse">
<stop offset="0.00507614" stop-color="#1C1F4C" stop-opacity="0"/>
<stop offset="0.0604" stop-color="#252A55" stop-opacity="0.1037"/>
<stop offset="0.1563" stop-color="#3B466F" stop-opacity="0.2837"/>
<stop offset="0.2814" stop-color="#617498" stop-opacity="0.5184"/>
<stop offset="0.4291" stop-color="#94B3D1" stop-opacity="0.7955"/>
<stop offset="0.5381" stop-color="#BDE6FF"/>
<stop offset="0.638" stop-color="#96B5D3" stop-opacity="0.7836"/>
<stop offset="0.8138" stop-color="#55658B" stop-opacity="0.4031"/>
<stop offset="0.9387" stop-color="#2C325E" stop-opacity="0.1327"/>
<stop offset="1" stop-color="#1C1F4C" stop-opacity="0"/>
</linearGradient>
</defs>
</svg>
