<svg width="111" height="100" viewBox="0 0 111 100" fill="none" xmlns="http://www.w3.org/2000/svg">
<path d="M2 2.44672C10.9546 0.989007 21.0063 3.30859 29.3941 6.37198C44.2086 11.7825 57.5884 20.2489 68.2748 31.9068C76.7116 41.1106 84.3465 53.0639 88.335 64.9616C91.5264 74.4818 92.1815 85.0714 92.7354 95.0414" stroke="white" stroke-width="3" stroke-linecap="round"/>
<path d="M74.1421 82.7698C76.7332 82.9193 77.9319 84.0573 79.8027 85.7448C82.5112 88.1877 85.2035 90.6448 87.9011 93.0995C88.6926 93.8196 93.8716 99.3231 94.5947 97.4792C96.4458 92.759 100.161 88.0761 103.52 84.3399C104.888 82.8181 106.372 81.1603 108.106 80.0428C108.518 79.777 109.044 79.7415 108.726 79.423" stroke="white" stroke-width="3" stroke-linecap="round"/>
</svg>
