<svg width="60" height="60" viewBox="0 0 60 60" fill="none" xmlns="http://www.w3.org/2000/svg">
<circle cx="2.09302" cy="2.09302" r="2.09302" fill="#222832"/>
<circle cx="2.09302" cy="13.2559" r="2.09302" fill="#222832"/>
<circle cx="2.09302" cy="24.4185" r="2.09302" fill="#222832"/>
<circle cx="2.09302" cy="35.5813" r="2.09302" fill="#222832"/>
<circle cx="2.09302" cy="46.7441" r="2.09302" fill="#222832"/>
<circle cx="2.09302" cy="57.907" r="2.09302" fill="#222832"/>
<circle cx="13.2559" cy="2.09302" r="2.09302" fill="#222832"/>
<circle cx="13.2559" cy="13.2559" r="2.09302" fill="#222832"/>
<circle cx="13.2559" cy="24.4185" r="2.09302" fill="#222832"/>
<circle cx="13.2559" cy="35.5813" r="2.09302" fill="#222832"/>
<circle cx="13.2559" cy="46.7441" r="2.09302" fill="#222832"/>
<circle cx="13.2559" cy="57.907" r="2.09302" fill="#222832"/>
<circle cx="24.4185" cy="2.09302" r="2.09302" fill="#222832"/>
<circle cx="24.4185" cy="13.2559" r="2.09302" fill="#222832"/>
<circle cx="24.4185" cy="24.4185" r="2.09302" fill="#222832"/>
<circle cx="24.4185" cy="35.5813" r="2.09302" fill="#222832"/>
<circle cx="24.4185" cy="46.7441" r="2.09302" fill="#222832"/>
<circle cx="24.4185" cy="57.907" r="2.09302" fill="#222832"/>
<circle cx="35.5813" cy="2.09302" r="2.09302" fill="#222832"/>
<circle cx="35.5813" cy="13.2559" r="2.09302" fill="#222832"/>
<circle cx="35.5813" cy="24.4185" r="2.09302" fill="#222832"/>
<circle cx="35.5813" cy="35.5813" r="2.09302" fill="#222832"/>
<circle cx="35.5813" cy="46.7441" r="2.09302" fill="#222832"/>
<circle cx="35.5813" cy="57.907" r="2.09302" fill="#222832"/>
<circle cx="46.7441" cy="2.09302" r="2.09302" fill="#222832"/>
<circle cx="46.7441" cy="13.2559" r="2.09302" fill="#222832"/>
<circle cx="46.7441" cy="24.4185" r="2.09302" fill="#222832"/>
<circle cx="46.7441" cy="35.5813" r="2.09302" fill="#222832"/>
<circle cx="46.7441" cy="46.7441" r="2.09302" fill="#222832"/>
<circle cx="46.7441" cy="57.907" r="2.09302" fill="#222832"/>
<circle cx="57.907" cy="2.09302" r="2.09302" fill="#222832"/>
<circle cx="57.907" cy="13.2559" r="2.09302" fill="#222832"/>
<circle cx="57.907" cy="24.4185" r="2.09302" fill="#222832"/>
<circle cx="57.907" cy="35.5813" r="2.09302" fill="#222832"/>
<circle cx="57.907" cy="46.7441" r="2.09302" fill="#222832"/>
<circle cx="57.907" cy="57.907" r="2.09302" fill="#222832"/>
</svg>
