<svg width="198" height="40" viewBox="0 0 198 40" fill="none" xmlns="http://www.w3.org/2000/svg">
<g clip-path="url(#clip0)">
<path d="M31.0024 26.7933C28.5467 28.5696 25.7842 32.4184 25.7842 39.5238L19.3381 39.805L19.1847 39.8139L19.0312 39.805L12.5852 39.5238C12.5852 32.4184 9.82257 28.5696 7.36694 26.7933C11.9712 18.2076 18.4173 6.9574 18.4173 6.9574V23.359C17.435 23.6699 16.729 24.558 16.729 25.6091C16.729 26.8673 17.745 27.8976 19.0312 27.9716C19.0803 27.9746 19.1325 27.9775 19.1847 27.9775C19.2368 27.9775 19.289 27.9746 19.3381 27.9716C20.6243 27.8976 21.6403 26.8673 21.6403 25.6091C21.6403 24.558 20.9343 23.6699 19.952 23.359V6.9574C19.952 6.9574 26.3981 18.2076 31.0024 26.7933Z" fill="#F9FBFC"/>
<path d="M19.1846 39.8139L19.3385 39.805V39.8198L19.1846 39.8139Z" fill="#F9FBFC"/>
<path d="M19.0312 39.805L19.1852 39.8139L19.0312 39.8198V39.805Z" fill="#F9FBFC"/>
<path d="M38.0623 15.8391V19.9839H33.7649V15.8391H34.959C33.8908 9.11266 28.3288 3.7925 21.3333 2.82439V4.14481H17.0359V2.78294C9.89619 3.63559 4.18992 9.01497 3.1033 15.8391H4.29735V19.9839H0V15.8391H1.55319C2.65822 8.19488 9.04592 2.16122 17.0359 1.29377V0H21.3333V1.3293C29.1759 2.31813 35.4194 8.29258 36.5091 15.8391H38.0623Z" fill="#F9FBFC"/>
</g>
<path d="M52.6423 29C52.7489 28.9867 52.8223 28.8867 52.8623 28.7C52.9023 28.5133 52.8289 28.2067 52.6423 27.78C52.5756 27.6067 52.4356 27.2867 52.2223 26.82C52.0089 26.3533 51.7556 25.7933 51.4623 25.14C51.1823 24.4867 50.8756 23.8067 50.5423 23.1C50.2223 22.38 49.9089 21.6933 49.6023 21.04C49.3089 20.3733 49.0423 19.7933 48.8023 19.3C48.5623 18.7933 48.3889 18.44 48.2823 18.24C48.0556 17.8133 47.8489 17.5067 47.6623 17.32C47.4889 17.12 47.3556 17.0133 47.2623 17H51.8023C51.7223 17 51.6689 17.0933 51.6423 17.28C51.6156 17.4667 51.6689 17.7867 51.8023 18.24C51.8823 18.48 52.0289 18.9 52.2423 19.5C52.4556 20.0867 52.7089 20.78 53.0023 21.58C53.3089 22.3667 53.6223 23.18 53.9423 24.02C54.2756 24.86 54.5889 25.6533 54.8823 26.4H54.9023C55.1956 25.6533 55.5089 24.8533 55.8423 24C56.1756 23.1333 56.4956 22.3067 56.8023 21.52C57.1089 20.72 57.3689 20.0267 57.5823 19.44C57.8089 18.84 57.9623 18.4267 58.0423 18.2C58.1889 17.76 58.2489 17.4533 58.2223 17.28C58.1956 17.0933 58.1356 17 58.0423 17H62.4423C62.3623 17 62.2356 17.0933 62.0623 17.28C61.9023 17.4533 61.7156 17.7533 61.5023 18.18C61.4089 18.3667 61.2489 18.7067 61.0223 19.2C60.7956 19.6933 60.5289 20.2733 60.2223 20.94C59.9156 21.5933 59.5956 22.28 59.2623 23C58.9423 23.7067 58.6356 24.3933 58.3423 25.06C58.0489 25.7133 57.7889 26.2867 57.5623 26.78C57.3489 27.26 57.2023 27.5933 57.1223 27.78C56.9489 28.2067 56.8756 28.5133 56.9023 28.7C56.9423 28.8867 57.0156 28.9867 57.1223 29H52.6423ZM65.6482 29C65.7415 29 65.8349 28.9067 65.9282 28.72C66.0215 28.5333 66.0682 28.2267 66.0682 27.8V18.2C66.0682 17.7733 66.0215 17.4733 65.9282 17.3C65.8349 17.1133 65.7415 17.0133 65.6482 17H77.3282V17.6L77.7282 19.92C77.3949 19.7733 76.8082 19.62 75.9682 19.46C75.1282 19.2867 74.1149 19.2 72.9282 19.2H69.9682C69.5682 19.2 69.3282 19.2333 69.2482 19.3C69.1815 19.3533 69.1482 19.52 69.1482 19.8V21.28C69.1482 21.5733 69.1815 21.7467 69.2482 21.8C69.3282 21.8533 69.5615 21.88 69.9482 21.88H72.8282C73.6015 21.88 74.2215 21.84 74.6882 21.76C75.1682 21.6667 75.4815 21.5733 75.6282 21.48C75.5749 21.7333 75.5149 22.0267 75.4482 22.36C75.3815 22.6933 75.3282 23.0133 75.2882 23.32C75.2482 23.6267 75.2282 23.88 75.2282 24.08H69.9482C69.5615 24.08 69.3282 24.1067 69.2482 24.16C69.1815 24.2 69.1482 24.3733 69.1482 24.68V26.16C69.1482 26.4667 69.1815 26.6467 69.2482 26.7C69.3149 26.7533 69.5482 26.78 69.9482 26.78H75.3482C76.1215 26.78 76.7415 26.6933 77.2082 26.52C77.6882 26.3333 78.0015 26.1533 78.1482 25.98L77.7482 28.38V29H65.6482ZM88.2144 29.2C85.9211 29.2 84.2011 28.7067 83.0544 27.72C81.9211 26.72 81.3544 25.1467 81.3544 23C81.3544 21.76 81.5878 20.68 82.0544 19.76C82.5211 18.8267 83.2611 18.1 84.2744 17.58C85.2878 17.06 86.6011 16.8 88.2144 16.8C89.4811 16.8 90.5344 16.8667 91.3744 17C92.2144 17.1333 92.7811 17.2667 93.0744 17.4V18L93.4744 20.2C93.1011 19.9333 92.4544 19.6667 91.5344 19.4C90.6144 19.1333 89.5211 19 88.2544 19C86.8811 19 85.8944 19.3333 85.2944 20C84.6944 20.6533 84.3944 21.6533 84.3944 23C84.3944 23.8933 84.5211 24.6333 84.7744 25.22C85.0411 25.8067 85.4944 26.2467 86.1344 26.54C86.7878 26.8333 87.6878 26.98 88.8344 26.98C89.9811 26.98 90.9344 26.82 91.6944 26.5C92.4678 26.18 92.9944 25.8733 93.2744 25.58V26.18L93.4744 28.2C93.2478 28.4133 92.6944 28.6333 91.8144 28.86C90.9478 29.0867 89.7478 29.2 88.2144 29.2ZM101.105 29C101.199 29 101.292 28.9067 101.385 28.72C101.479 28.5333 101.525 28.2267 101.525 27.8V19.8C101.525 19.5067 101.492 19.3333 101.425 19.28C101.359 19.2267 101.125 19.2 100.725 19.2H99.2654C98.492 19.2 97.8654 19.2867 97.3854 19.46C96.9187 19.62 96.612 19.7733 96.4654 19.92L96.8654 17.6V17H109.265V17.6L109.665 19.92C109.519 19.7733 109.205 19.62 108.725 19.46C108.259 19.2867 107.639 19.2 106.865 19.2H105.425C105.012 19.2 104.772 19.2267 104.705 19.28C104.639 19.3333 104.605 19.5067 104.605 19.8V27.8C104.605 28.2267 104.652 28.5333 104.745 28.72C104.839 28.9067 104.932 29 105.025 29H101.105ZM119.159 29.2C116.866 29.2 115.206 28.6533 114.179 27.56C113.166 26.4533 112.659 24.9133 112.659 22.94C112.659 21.6733 112.879 20.5867 113.319 19.68C113.772 18.76 114.472 18.0533 115.419 17.56C116.379 17.0533 117.626 16.8 119.159 16.8H119.779C121.286 16.8 122.506 17.0467 123.439 17.54C124.386 18.0333 125.079 18.74 125.519 19.66C125.959 20.58 126.179 21.6733 126.179 22.94C126.179 24.9133 125.672 26.4533 124.659 27.56C123.646 28.6533 122.019 29.2 119.779 29.2H119.159ZM119.359 26.98H119.579C120.806 26.98 121.706 26.6733 122.279 26.06C122.852 25.4467 123.139 24.4067 123.139 22.94C123.139 21.5133 122.846 20.5 122.259 19.9C121.672 19.3 120.779 19 119.579 19H119.359C118.106 19 117.179 19.3133 116.579 19.94C115.992 20.5533 115.699 21.5533 115.699 22.94C115.699 24.4067 116.006 25.4467 116.619 26.06C117.232 26.6733 118.146 26.98 119.359 26.98ZM129.996 29C130.09 29 130.176 28.9067 130.256 28.72C130.35 28.5333 130.396 28.2267 130.396 27.8V18.2C130.396 17.7733 130.35 17.4733 130.256 17.3C130.163 17.1133 130.07 17.0133 129.976 17H136.536C138.283 17 139.516 17.3267 140.236 17.98C140.97 18.6333 141.336 19.5867 141.336 20.84C141.336 21.7467 141.09 22.4933 140.596 23.08C140.116 23.6533 139.516 24.0333 138.796 24.22V24.28C139.33 24.4933 139.89 24.9133 140.476 25.54C141.063 26.1533 141.59 26.84 142.056 27.6C142.363 28.0933 142.643 28.4467 142.896 28.66C143.15 28.8733 143.343 28.9867 143.476 29H138.436C138.596 28.9867 138.723 28.9 138.816 28.74C138.923 28.5667 138.89 28.2867 138.716 27.9C138.303 26.94 137.75 26.1867 137.056 25.64C136.363 25.08 135.51 24.8 134.496 24.8H134.276C133.863 24.8 133.623 24.8333 133.556 24.9C133.49 24.9667 133.456 25.1333 133.456 25.4V27.8C133.456 28.2267 133.503 28.5333 133.596 28.72C133.69 28.9067 133.783 29 133.876 29H129.996ZM134.276 22.78H135.916C136.756 22.78 137.363 22.6333 137.736 22.34C138.11 22.0333 138.296 21.5333 138.296 20.84C138.296 20.3733 138.143 19.9933 137.836 19.7C137.53 19.4067 136.956 19.26 136.116 19.26H134.276C133.863 19.26 133.623 19.28 133.556 19.32C133.49 19.36 133.456 19.5133 133.456 19.78V22.24C133.456 22.5067 133.49 22.6667 133.556 22.72C133.623 22.76 133.863 22.78 134.276 22.78ZM157.933 29.2C155.68 29.2 154.007 28.7067 152.913 27.72C151.82 26.72 151.273 25.1467 151.273 23C151.273 21.76 151.48 20.68 151.893 19.76C152.307 18.8267 152.987 18.1 153.933 17.58C154.88 17.06 156.147 16.8 157.733 16.8C158.853 16.8 159.847 16.9133 160.713 17.14C161.593 17.3533 162.22 17.5733 162.593 17.8V18L162.793 19C162.553 18.8 162.193 18.5933 161.713 18.38C161.247 18.1667 160.68 17.9867 160.013 17.84C159.347 17.68 158.6 17.6 157.773 17.6C155.893 17.6 154.52 18.08 153.653 19.04C152.787 19.9867 152.353 21.3067 152.353 23C152.353 24.7333 152.793 26.0667 153.673 27C154.567 27.92 156.06 28.38 158.153 28.38C159.42 28.38 160.447 28.2467 161.233 27.98C162.02 27.7 162.54 27.4333 162.793 27.18V27.4L162.993 28.2C162.713 28.4133 162.14 28.6333 161.273 28.86C160.42 29.0867 159.307 29.2 157.933 29.2ZM173.289 29.2C170.955 29.2 169.289 28.68 168.289 27.64C167.289 26.5867 166.789 25.02 166.789 22.94C166.789 21.6067 167.002 20.4867 167.429 19.58C167.869 18.66 168.562 17.9667 169.509 17.5C170.469 17.0333 171.729 16.8 173.289 16.8H173.909C176.215 16.8 177.855 17.32 178.829 18.36C179.815 19.4 180.309 20.9267 180.309 22.94C180.309 25.0333 179.815 26.6 178.829 27.64C177.842 28.68 176.202 29.2 173.909 29.2H173.289ZM173.489 28.38H173.709C174.882 28.38 175.875 28.2267 176.689 27.92C177.515 27.6133 178.142 27.0667 178.569 26.28C179.009 25.4933 179.229 24.38 179.229 22.94C179.229 21.58 179.009 20.5133 178.569 19.74C178.142 18.9667 177.515 18.42 176.689 18.1C175.862 17.7667 174.869 17.6 173.709 17.6H173.489C172.302 17.6 171.289 17.7667 170.449 18.1C169.609 18.4333 168.969 18.9933 168.529 19.78C168.089 20.5533 167.869 21.6067 167.869 22.94C167.869 24.3533 168.089 25.46 168.529 26.26C168.982 27.0467 169.629 27.6 170.469 27.92C171.309 28.2267 172.315 28.38 173.489 28.38ZM184.736 29C184.829 29 184.916 28.9067 184.996 28.72C185.089 28.5333 185.136 28.2267 185.136 27.8V18.2C185.136 17.7733 185.089 17.4733 184.996 17.3C184.903 17.1133 184.809 17.0133 184.716 17H191.256C192.389 17 193.276 17.1467 193.916 17.44C194.556 17.7333 195.009 18.16 195.276 18.72C195.543 19.28 195.676 19.9733 195.676 20.8C195.676 22.04 195.343 22.98 194.676 23.62C194.009 24.2467 192.869 24.56 191.256 24.56H186.176V27.8C186.176 28.2267 186.223 28.5333 186.316 28.72C186.409 28.9067 186.503 29 186.596 29H184.736ZM186.996 23.74H191.056C192.403 23.74 193.329 23.4933 193.836 23C194.356 22.5067 194.616 21.7733 194.616 20.8C194.616 19.7733 194.349 19.02 193.816 18.54C193.283 18.0467 192.363 17.8 191.056 17.8H186.996C186.583 17.8 186.343 17.8267 186.276 17.88C186.209 17.92 186.176 18.0733 186.176 18.34V23.18C186.176 23.4467 186.209 23.6067 186.276 23.66C186.343 23.7133 186.583 23.74 186.996 23.74Z" fill="white"/>
<defs>
<clipPath id="clip0">
<rect width="38.0623" height="39.8198" fill="white"/>
</clipPath>
</defs>
</svg>
