<svg width="163" height="295" viewBox="0 0 163 295" fill="none" xmlns="http://www.w3.org/2000/svg">
<circle cx="15.0781" cy="10.2613" r="7.25581" transform="rotate(45 15.0781 10.2613)" fill="#222832"/>
<circle cx="42.4414" cy="37.6245" r="7.25581" transform="rotate(45 42.4414 37.6245)" fill="#222832"/>
<circle cx="15.0781" cy="64.9878" r="7.25581" transform="rotate(45 15.0781 64.9878)" fill="#222832"/>
<circle cx="69.8049" cy="64.9881" r="7.25581" transform="rotate(45 69.8049 64.9881)" fill="#222832"/>
<circle cx="42.4417" cy="92.3514" r="7.25581" transform="rotate(45 42.4417 92.3514)" fill="#222832"/>
<circle cx="15.0781" cy="119.715" r="7.25581" transform="rotate(45 15.0781 119.715)" fill="#222832"/>
<circle cx="97.1682" cy="92.3514" r="7.25581" transform="rotate(45 97.1682 92.3514)" fill="#222832"/>
<circle cx="69.8049" cy="119.715" r="7.25581" transform="rotate(45 69.8049 119.715)" fill="#222832"/>
<circle cx="42.4414" cy="147.078" r="7.25581" transform="rotate(45 42.4414 147.078)" fill="#222832"/>
<circle cx="15.0781" cy="174.442" r="7.25581" transform="rotate(45 15.0781 174.442)" fill="#222832"/>
<circle cx="124.532" cy="119.715" r="7.25581" transform="rotate(45 124.532 119.715)" fill="#222832"/>
<circle cx="97.1682" cy="147.078" r="7.25581" transform="rotate(45 97.1682 147.078)" fill="#222832"/>
<circle cx="69.8047" cy="174.442" r="7.25581" transform="rotate(45 69.8047 174.442)" fill="#222832"/>
<circle cx="42.4414" cy="201.805" r="7.25581" transform="rotate(45 42.4414 201.805)" fill="#222832"/>
<circle cx="15.0781" cy="229.168" r="7.25581" transform="rotate(45 15.0781 229.168)" fill="#222832"/>
<circle cx="151.895" cy="147.078" r="7.25581" transform="rotate(45 151.895 147.078)" fill="#222832"/>
<circle cx="124.532" cy="174.441" r="7.25581" transform="rotate(45 124.532 174.441)" fill="#222832"/>
<circle cx="97.1682" cy="201.805" r="7.25581" transform="rotate(45 97.1682 201.805)" fill="#222832"/>
<circle cx="69.8047" cy="229.168" r="7.25581" transform="rotate(45 69.8047 229.168)" fill="#222832"/>
<circle cx="42.4414" cy="256.532" r="7.25581" transform="rotate(45 42.4414 256.532)" fill="#222832"/>
<circle cx="15.0781" cy="283.895" r="7.25581" transform="rotate(45 15.0781 283.895)" fill="#222832"/>
</svg>
