<svg width="68" height="70" viewBox="0 0 68 70" fill="none" xmlns="http://www.w3.org/2000/svg">
<g clip-path="url(#clip0)">
<path d="M55.5251 47.0027C51.1861 50.1002 46.3046 56.8114 46.3046 69.2013L34.9146 69.6917L34.6434 69.7072L34.3722 69.6917L22.9821 69.2013C22.9821 56.8114 18.1007 50.1002 13.7616 47.0027C21.8974 32.0316 33.2874 12.4142 33.2874 12.4142V41.0143C31.5518 41.5563 30.3043 43.1051 30.3043 44.9377C30.3043 47.1318 32.0996 48.9283 34.3722 49.0574C34.459 49.0625 34.5512 49.0677 34.6434 49.0677C34.7356 49.0677 34.8278 49.0625 34.9146 49.0574C37.1871 48.9283 38.9824 47.1318 38.9824 44.9377C38.9824 43.1051 37.735 41.5563 35.9993 41.0143V12.4142C35.9993 12.4142 47.3894 32.0316 55.5251 47.0027Z" fill="#F9FBFC"/>
<path d="M34.6434 69.7072L34.9146 69.6917V69.7175L34.6434 69.7072Z" fill="#F9FBFC"/>
<path d="M34.3722 69.6917L34.6434 69.7072L34.3722 69.7175V69.6917Z" fill="#F9FBFC"/>
<path d="M68 27.9016V35.129H60.4066V27.9016H62.5165C60.629 16.1725 50.801 6.89552 38.4401 5.2074V7.50986H30.8467V5.13512C18.2308 6.62191 8.14792 16.0021 6.22788 27.9016H8.33776V35.129H0.744385V27.9016H3.48885C5.44143 14.5721 16.7284 4.05101 30.8467 2.53841V0.28241H38.4401V2.60036C52.298 4.32462 63.33 14.7425 65.2555 27.9016H68Z" fill="#F9FBFC"/>
</g>
<defs>
<clipPath id="clip0">
<rect width="67.2556" height="69.4351" fill="white" transform="translate(0.744385 0.28241)"/>
</clipPath>
</defs>
</svg>
