<svg width="161" height="295" viewBox="0 0 161 295" fill="none" xmlns="http://www.w3.org/2000/svg">
<circle cx="147.078" cy="10.2613" r="7.25581" transform="rotate(45 147.078 10.2613)" fill="#222832"/>
<circle cx="119.715" cy="37.6245" r="7.25581" transform="rotate(45 119.715 37.6245)" fill="#222832"/>
<circle cx="92.3513" cy="64.9881" r="7.25581" transform="rotate(45 92.3513 64.9881)" fill="#222832"/>
<circle cx="64.9879" cy="92.3514" r="7.25581" transform="rotate(45 64.9879 92.3514)" fill="#222832"/>
<circle cx="37.6246" cy="119.715" r="7.25581" transform="rotate(45 37.6246 119.715)" fill="#222832"/>
<circle cx="10.2612" cy="147.078" r="7.25581" transform="rotate(45 10.2612 147.078)" fill="#222832"/>
<circle cx="147.078" cy="64.9878" r="7.25581" transform="rotate(45 147.078 64.9878)" fill="#222832"/>
<circle cx="119.715" cy="92.3514" r="7.25581" transform="rotate(45 119.715 92.3514)" fill="#222832"/>
<circle cx="92.3513" cy="119.715" r="7.25581" transform="rotate(45 92.3513 119.715)" fill="#222832"/>
<circle cx="64.9879" cy="147.078" r="7.25581" transform="rotate(45 64.9879 147.078)" fill="#222832"/>
<circle cx="37.6246" cy="174.441" r="7.25581" transform="rotate(45 37.6246 174.441)" fill="#222832"/>
<circle cx="147.078" cy="119.715" r="7.25581" transform="rotate(45 147.078 119.715)" fill="#222832"/>
<circle cx="119.715" cy="147.078" r="7.25581" transform="rotate(45 119.715 147.078)" fill="#222832"/>
<circle cx="92.3514" cy="174.442" r="7.25581" transform="rotate(45 92.3514 174.442)" fill="#222832"/>
<circle cx="64.9882" cy="201.805" r="7.25581" transform="rotate(45 64.9882 201.805)" fill="#222832"/>
<circle cx="147.078" cy="174.442" r="7.25581" transform="rotate(45 147.078 174.442)" fill="#222832"/>
<circle cx="119.715" cy="201.805" r="7.25581" transform="rotate(45 119.715 201.805)" fill="#222832"/>
<circle cx="92.3514" cy="229.168" r="7.25581" transform="rotate(45 92.3514 229.168)" fill="#222832"/>
<circle cx="147.078" cy="229.168" r="7.25581" transform="rotate(45 147.078 229.168)" fill="#222832"/>
<circle cx="119.715" cy="256.532" r="7.25581" transform="rotate(45 119.715 256.532)" fill="#222832"/>
<circle cx="147.078" cy="283.895" r="7.25581" transform="rotate(45 147.078 283.895)" fill="#222832"/>
</svg>
