<svg width="253" height="237" viewBox="0 0 253 237" fill="none" xmlns="http://www.w3.org/2000/svg">
<path d="M212.002 1.23906C212.517 1.34936 213.068 1.45969 213.62 1.60675C231.047 5.94524 248.475 23.8138 252.115 41.1678C255.571 57.6761 245.166 67.2355 229.062 63.4486C228.547 63.3382 228.032 63.1911 227.481 63.0441C210.752 58.3379 194.281 41.3516 190.31 24.733C186.302 8.37177 195.825 -1.99642 212.002 1.23906Z" fill="url(#paint0_linear)"/>
<path d="M247.262 60.471L40.3749 235.15C38.1689 237.025 34.3451 237.209 29.4183 235.334C29.0874 235.224 28.7565 235.077 28.3889 234.93C17.5059 230.297 5.51991 217.796 1.40203 206.803C-0.693682 201.178 -0.362763 196.986 1.88001 194.78L194.023 5.17383C189.758 9.36524 188.177 16.2406 190.236 24.7337C194.207 41.3155 210.715 58.3018 227.408 63.0447C227.922 63.1918 228.474 63.3389 228.989 63.4492C236.673 65.2508 243.034 64.0006 247.262 60.471Z" fill="url(#paint1_linear)"/>
<path d="M248.732 59.0365C248.732 59.0365 248.475 59.3674 247.997 59.9557C247.482 60.5072 246.71 61.3528 245.534 62.1617C243.217 63.8162 239.1 65.4707 234.062 65.2501C231.562 65.2133 228.878 64.8089 226.084 64C223.474 63.3382 220.459 62.1617 217.738 60.8013C215.017 59.3307 212.223 57.7129 209.649 55.6907C207.039 53.7421 204.612 51.4993 202.296 49.1462C197.774 44.3298 193.913 38.8515 191.486 33.0791C190.163 30.2481 189.391 27.3068 188.803 24.4757C188.288 21.755 188.104 18.8871 188.361 16.4238C188.729 11.3499 191.082 7.52616 193.141 5.57752C194.171 4.54804 195.126 3.95982 195.788 3.55539C196.45 3.18772 196.818 3.00391 196.818 3.00391C196.818 3.00391 196.487 3.26128 195.899 3.70248C195.31 4.18045 194.538 4.95246 193.693 6.0187C191.891 8.11441 190.42 11.9014 190.42 16.4973C190.42 18.8503 190.714 21.2402 191.45 23.8874C192.185 26.4243 193.141 29.0715 194.465 31.682C195.678 34.3292 197.332 36.8661 199.061 39.403C200.825 41.9032 202.811 44.3297 204.98 46.5725C209.245 51.1316 214.245 54.9921 219.282 57.8967C221.893 59.2939 224.209 60.5071 226.93 61.4263C229.43 62.3455 231.893 62.897 234.21 63.1543C238.842 63.6691 242.776 62.8234 245.166 61.4998C246.379 60.8748 247.262 60.2131 247.887 59.7719C248.438 59.2939 248.732 59.0365 248.732 59.0365Z" fill="url(#paint2_linear)"/>
<defs>
<linearGradient id="paint0_linear" x1="189.368" y1="32.4515" x2="252.746" y2="32.4515" gradientUnits="userSpaceOnUse">
<stop stop-color="#DADEE1"/>
<stop offset="0.211" stop-color="#BDBEC6"/>
<stop offset="0.671" stop-color="#726D81"/>
<stop offset="1" stop-color="#3A304C"/>
</linearGradient>
<linearGradient id="paint1_linear" x1="95.3008" y1="102.625" x2="142.693" y2="156.58" gradientUnits="userSpaceOnUse">
<stop stop-color="#ABA5B5"/>
<stop offset="0.1138" stop-color="#9790A4"/>
<stop offset="0.2995" stop-color="#706783"/>
<stop offset="0.6718" stop-color="#261E2E"/>
<stop offset="0.7156" stop-color="#2B2434"/>
<stop offset="0.7716" stop-color="#3B3343"/>
<stop offset="0.8343" stop-color="#554E5E"/>
<stop offset="0.9018" stop-color="#797282"/>
<stop offset="0.9724" stop-color="#A6A1B1"/>
<stop offset="1" stop-color="#BAB5C5"/>
</linearGradient>
<linearGradient id="paint2_linear" x1="199.558" y1="46.8046" x2="228.545" y2="27.631" gradientUnits="userSpaceOnUse">
<stop offset="0.00507614" stop-color="#1C1F4C" stop-opacity="0"/>
<stop offset="0.0604" stop-color="#252A55" stop-opacity="0.1037"/>
<stop offset="0.1563" stop-color="#3B466F" stop-opacity="0.2837"/>
<stop offset="0.2814" stop-color="#617498" stop-opacity="0.5184"/>
<stop offset="0.4291" stop-color="#94B3D1" stop-opacity="0.7955"/>
<stop offset="0.5381" stop-color="#BDE6FF"/>
<stop offset="0.638" stop-color="#96B5D3" stop-opacity="0.7836"/>
<stop offset="0.8138" stop-color="#55658B" stop-opacity="0.4031"/>
<stop offset="0.9387" stop-color="#2C325E" stop-opacity="0.1327"/>
<stop offset="1" stop-color="#1C1F4C" stop-opacity="0"/>
</linearGradient>
</defs>
</svg>
