<svg width="217" height="209" viewBox="0 0 217 209" fill="none" xmlns="http://www.w3.org/2000/svg">
<path d="M16.4511 63.497C16.328 63.6251 16.1961 63.7664 16.0643 63.9077C11.9782 68.4039 9.13146 76.9523 9.68805 83.0063C10.2353 88.8547 13.7728 90.2282 17.7069 86.2114C17.83 86.0834 17.9619 85.942 18.0938 85.8007C22.1775 81.2934 25.0242 72.745 24.47 66.7021C23.9204 60.8426 20.3741 59.4825 16.4511 63.497Z" fill="url(#paint0_radial)"/>
<path d="M12.662 87.5835L194.419 145.464C195.84 145.912 197.634 145.222 199.52 143.287C199.643 143.158 199.776 143.016 199.908 142.874C204.005 138.349 206.859 129.765 206.3 123.696C206.014 120.628 204.909 118.787 203.365 118.306L21.6075 60.4249C23.1522 60.9062 24.2563 62.7476 24.5427 65.8153C25.1124 71.8821 22.2474 80.4683 18.1506 84.9934C18.0183 85.1353 17.8971 85.2749 17.7624 85.4057C15.8739 87.33 14.0809 88.0203 12.662 87.5835Z" fill="url(#paint1_linear)"/>
<path d="M12.0949 88.1431C12.0949 88.1431 12.2226 88.1983 12.4709 88.2757C12.7081 88.3553 13.0897 88.4062 13.5462 88.3732C14.486 88.3248 15.6991 87.6579 16.8424 86.5559C17.433 86.0126 17.9643 85.3545 18.5323 84.5969C19.0471 83.8614 19.5676 83.0442 20.0516 82.1651C20.5515 81.3059 20.9857 80.3561 21.4064 79.3975C21.8271 78.4389 22.2027 77.4316 22.529 76.4111C22.8554 75.3906 23.1683 74.3613 23.3787 73.3408C23.6114 72.3158 23.7862 71.2909 23.9213 70.2968C24.0206 69.2984 24.1047 68.3375 24.0825 67.4207C24.0824 66.4996 24.0006 65.6292 23.8352 64.856C23.6587 64.085 23.4297 63.3935 23.1021 62.8368C22.7855 62.2778 22.3838 61.8624 21.9842 61.6193C21.5846 61.3762 21.2268 61.2745 20.9721 61.2215C20.711 61.1927 20.5793 61.1728 20.5793 61.1728C20.5793 61.1728 20.7174 61.1684 20.9825 61.1618C21.2412 61.1796 21.6404 61.2039 22.0933 61.425C23.0164 61.8405 24.0073 63.0601 24.453 64.7103C24.9209 66.3562 25.0715 68.3068 24.9164 70.3987C24.813 71.4325 24.6946 72.5039 24.4602 73.5752C24.248 74.6421 23.9446 75.7156 23.6142 76.7714C23.2592 77.8207 22.8662 78.8544 22.4169 79.8417C21.9676 80.8291 21.4643 81.781 20.9136 82.6734C20.3874 83.5723 19.7709 84.374 19.1672 85.1272C18.5517 85.8251 17.9203 86.5031 17.267 87.0243C15.9833 88.1197 14.5522 88.6341 13.5554 88.5786C13.0538 88.563 12.6778 88.4304 12.4446 88.3155C12.2138 88.2116 12.0949 88.1431 12.0949 88.1431Z" fill="url(#paint2_linear)"/>
<g style="mix-blend-mode:screen">
<path d="M35.8573 87.3372C49.4549 90.13 61.3644 88.0884 62.4539 82.7778C63.5434 77.4673 53.3967 70.8837 39.8102 68.0887C26.2126 65.296 14.3032 67.3376 13.2137 72.6481C12.113 77.9608 22.2596 84.5444 35.8573 87.3372Z" fill="url(#paint3_radial)"/>
</g>
<path d="M160.606 18.3297C160.484 18.1926 160.36 18.0444 160.235 17.8963C156.088 13.3369 147.76 9.51769 141.619 9.35658C135.678 9.20196 133.973 12.5512 137.644 16.8941C137.766 17.0312 137.891 17.1793 138.013 17.3164C142.16 21.8758 150.499 25.6928 156.628 25.8561C162.572 26.0218 164.268 22.6859 160.606 18.3297Z" fill="url(#paint4_radial)"/>
<path d="M111.388 99.1787C112.302 104.48 121.187 111.599 130.362 96.0321L162.12 23.5662C161.49 25.0379 159.543 25.8994 156.434 25.8325C150.307 25.6919 141.973 21.8888 137.835 17.3484C137.699 17.2031 137.577 17.0666 137.466 16.9278C135.712 14.8533 135.194 13.0138 135.781 11.6659L102.897 86.726C106.171 88.8871 110.531 94.142 111.388 99.1787Z" fill="url(#paint5_linear)"/>
<path d="M136.206 11.1799C136.206 11.1799 136.137 11.2972 136.037 11.5361C135.934 11.7639 135.847 12.1265 135.829 12.5906C135.795 13.5297 136.342 14.7899 137.34 16.0401C137.839 16.6884 138.442 17.2812 139.151 17.9334C139.848 18.5303 140.617 19.1359 141.451 19.717C142.276 20.3114 143.18 20.8438 144.108 21.3716C145.035 21.8995 146.011 22.383 147.002 22.829C147.994 23.2749 149.003 23.6943 150.015 24.0208C151.022 24.3717 152.038 24.6629 153.021 24.9034C154.008 25.1085 154.982 25.3048 155.898 25.3974C156.831 25.5098 157.706 25.5186 158.504 25.4391C159.303 25.3597 160.016 25.2054 160.613 24.9475C161.202 24.7029 161.662 24.3459 161.948 23.9894C162.231 23.6219 162.367 23.2725 162.445 23.038C162.497 22.786 162.527 22.6533 162.527 22.6533C162.527 22.6533 162.521 22.7926 162.506 23.0489C162.466 23.2987 162.398 23.6922 162.126 24.1149C161.624 24.9868 160.286 25.8189 158.591 26.0664C156.89 26.3382 154.905 26.2639 152.817 25.8651C151.781 25.6468 150.718 25.411 149.662 25.047C148.602 24.7183 147.557 24.2946 146.53 23.8444C145.512 23.3808 144.506 22.8687 143.547 22.3011C142.591 21.7446 141.683 21.1438 140.847 20.4942C139.992 19.8711 139.25 19.1682 138.545 18.4807C137.898 17.793 137.272 17.0898 136.809 16.3884C135.826 14.9968 135.457 13.5284 135.598 12.5448C135.656 12.0497 135.825 11.6935 135.967 11.481C136.11 11.2796 136.206 11.1799 136.206 11.1799Z" fill="url(#paint6_linear)"/>
<g style="mix-blend-mode:screen">
<path d="M134.559 34.5914C130.406 47.5965 131.285 59.4895 136.509 61.1439C141.746 62.8071 149.356 53.6035 153.509 40.5984C157.662 27.5933 156.783 15.7002 151.559 14.0459C146.322 12.3827 138.712 21.5862 134.559 34.5914Z" fill="url(#paint7_radial)"/>
</g>
<path d="M61.2176 190.1C61.3395 190.236 61.4637 190.383 61.5856 190.518C65.7205 195.039 74.0621 198.799 80.2071 198.932C83.3156 199.002 85.268 198.125 85.9163 196.651L118.877 122.118L118.856 121.686C118.856 121.686 119.818 121.205 118.347 115.973C116.866 110.743 108.052 109.017 103.249 111.057C98.4467 113.096 91.3777 112.956 91.3777 112.956L91.3306 112.954L59.5429 184.84C58.9499 186.188 59.4765 188.032 61.2176 190.1Z" fill="url(#paint8_linear)"/>
<defs>
<radialGradient id="paint0_radial" cx="0" cy="0" r="1" gradientUnits="userSpaceOnUse" gradientTransform="translate(5.99085 74.4273) rotate(129.19) scale(26.8756 18.8939)">
<stop offset="0.0152" stop-color="#5D4E53"/>
<stop offset="0.2129" stop-color="#65575F"/>
<stop offset="0.569" stop-color="#7B707E"/>
<stop offset="0.9949" stop-color="#9B94AC"/>
</radialGradient>
<linearGradient id="paint1_linear" x1="115.002" y1="90.9159" x2="106.333" y2="117.706" gradientUnits="userSpaceOnUse">
<stop stop-color="#706783"/>
<stop offset="0.000846742" stop-color="#6F6682"/>
<stop offset="0.0216" stop-color="#645A71"/>
<stop offset="0.0473" stop-color="#5C5166"/>
<stop offset="0.0835" stop-color="#574B5F"/>
<stop offset="0.184" stop-color="#564A5D"/>
<stop offset="0.2365" stop-color="#6C6274"/>
<stop offset="0.3293" stop-color="#8E8697"/>
<stop offset="0.4163" stop-color="#A6A0B0"/>
<stop offset="0.4942" stop-color="#B5AFC0"/>
<stop offset="0.5556" stop-color="#BAB5C5"/>
<stop offset="0.5966" stop-color="#838091"/>
<stop offset="0.6376" stop-color="#545264"/>
<stop offset="0.6764" stop-color="#302E41"/>
<stop offset="0.7125" stop-color="#151528"/>
<stop offset="0.7447" stop-color="#060518"/>
<stop offset="0.7699" stop-color="#000013"/>
<stop offset="0.794" stop-color="#100F23"/>
<stop offset="0.8414" stop-color="#3B364E"/>
<stop offset="0.8934" stop-color="#706783"/>
</linearGradient>
<linearGradient id="paint2_linear" x1="24.2448" y1="75.9391" x2="13.8337" y2="74.4655" gradientUnits="userSpaceOnUse">
<stop offset="0.00507614" stop-opacity="0"/>
<stop offset="0.0675" stop-color="#09080B" stop-opacity="0.1171"/>
<stop offset="0.1757" stop-color="#201F27" stop-opacity="0.3202"/>
<stop offset="0.3169" stop-color="#464355" stop-opacity="0.5849"/>
<stop offset="0.4837" stop-color="#7A7594" stop-opacity="0.898"/>
<stop offset="0.5381" stop-color="#8C87AA"/>
<stop offset="0.5851" stop-color="#7C7796" stop-opacity="0.8981"/>
<stop offset="0.7867" stop-color="#3A3746" stop-opacity="0.4617"/>
<stop offset="0.9298" stop-color="#100F13" stop-opacity="0.152"/>
<stop offset="1" stop-opacity="0"/>
</linearGradient>
<radialGradient id="paint3_radial" cx="0" cy="0" r="1" gradientUnits="userSpaceOnUse" gradientTransform="translate(37.8272 77.7106) rotate(101.575) scale(9.82392 25.1359)">
<stop stop-color="#3D1A01"/>
<stop offset="0.6191" stop-color="#140900"/>
<stop offset="1"/>
</radialGradient>
<radialGradient id="paint4_radial" cx="0" cy="0" r="1" gradientUnits="userSpaceOnUse" gradientTransform="translate(150.583 6.71537) rotate(-135.212) scale(27.2846 18.7038)">
<stop offset="0.0152" stop-color="#5D4E53"/>
<stop offset="0.2129" stop-color="#65575F"/>
<stop offset="0.569" stop-color="#7B707E"/>
<stop offset="0.9949" stop-color="#9B94AC"/>
</radialGradient>
<linearGradient id="paint5_linear" x1="116.789" y1="54.4413" x2="143.198" y2="65.7596" gradientUnits="userSpaceOnUse">
<stop offset="0.1066" stop-color="#706783"/>
<stop offset="0.1586" stop-color="#3B364E"/>
<stop offset="0.206" stop-color="#100F23"/>
<stop offset="0.2301" stop-color="#000013"/>
<stop offset="0.2553" stop-color="#060518"/>
<stop offset="0.2875" stop-color="#151528"/>
<stop offset="0.3236" stop-color="#302E41"/>
<stop offset="0.3624" stop-color="#545264"/>
<stop offset="0.4034" stop-color="#838091"/>
<stop offset="0.4444" stop-color="#BAB5C5"/>
<stop offset="0.5058" stop-color="#B5AFC0"/>
<stop offset="0.5837" stop-color="#A6A0B0"/>
<stop offset="0.6707" stop-color="#8E8697"/>
<stop offset="0.7635" stop-color="#6C6274"/>
<stop offset="0.816" stop-color="#564A5D"/>
<stop offset="0.9165" stop-color="#574B5F"/>
<stop offset="0.9527" stop-color="#5C5166"/>
<stop offset="0.9784" stop-color="#645A71"/>
<stop offset="0.9992" stop-color="#6F6682"/>
<stop offset="1" stop-color="#706783"/>
</linearGradient>
<linearGradient id="paint6_linear" x1="147.32" y1="24.5536" x2="149.899" y2="14.4771" gradientUnits="userSpaceOnUse">
<stop offset="0.00507614" stop-opacity="0"/>
<stop offset="0.0675" stop-color="#09080B" stop-opacity="0.1171"/>
<stop offset="0.1757" stop-color="#201F27" stop-opacity="0.3202"/>
<stop offset="0.3169" stop-color="#464355" stop-opacity="0.5849"/>
<stop offset="0.4837" stop-color="#7A7594" stop-opacity="0.898"/>
<stop offset="0.5381" stop-color="#8C87AA"/>
<stop offset="0.5851" stop-color="#7C7796" stop-opacity="0.8981"/>
<stop offset="0.7867" stop-color="#3A3746" stop-opacity="0.4617"/>
<stop offset="0.9298" stop-color="#100F13" stop-opacity="0.152"/>
<stop offset="1" stop-opacity="0"/>
</linearGradient>
<radialGradient id="paint7_radial" cx="0" cy="0" r="1" gradientUnits="userSpaceOnUse" gradientTransform="translate(144.036 37.5939) rotate(-162.417) scale(9.94379 24.7252)">
<stop stop-color="#3D1A01"/>
<stop offset="0.6191" stop-color="#140900"/>
<stop offset="1"/>
</radialGradient>
<linearGradient id="paint8_linear" x1="101.925" y1="158.198" x2="76.3718" y2="146.74" gradientUnits="userSpaceOnUse">
<stop stop-color="#706783"/>
<stop offset="0.000846742" stop-color="#6F6682"/>
<stop offset="0.0216" stop-color="#645A71"/>
<stop offset="0.0473" stop-color="#5C5166"/>
<stop offset="0.0835" stop-color="#574B5F"/>
<stop offset="0.184" stop-color="#564A5D"/>
<stop offset="0.2365" stop-color="#6C6274"/>
<stop offset="0.3293" stop-color="#8E8697"/>
<stop offset="0.4163" stop-color="#A6A0B0"/>
<stop offset="0.4942" stop-color="#B5AFC0"/>
<stop offset="0.5556" stop-color="#BAB5C5"/>
<stop offset="0.5966" stop-color="#838091"/>
<stop offset="0.6376" stop-color="#545264"/>
<stop offset="0.6764" stop-color="#302E41"/>
<stop offset="0.7125" stop-color="#151528"/>
<stop offset="0.7447" stop-color="#060518"/>
<stop offset="0.7699" stop-color="#000013"/>
<stop offset="0.794" stop-color="#100F23"/>
<stop offset="0.8414" stop-color="#3B364E"/>
<stop offset="0.8934" stop-color="#706783"/>
</linearGradient>
</defs>
</svg>
