<svg width="48" height="59" viewBox="0 0 48 59" fill="none" xmlns="http://www.w3.org/2000/svg">
<path d="M10.5834 39.4707C11.2512 39.4707 11.8404 39.4636 12.4282 39.4722C13.1246 39.4835 13.4879 39.8272 13.4922 40.5089C13.5022 42.4049 13.5022 44.3023 13.4907 46.1983C13.4864 46.8459 13.1203 47.2067 12.4639 47.2095C10.5548 47.2194 8.64426 47.2194 6.73513 47.2095C6.05299 47.2067 5.70261 46.8402 5.69975 46.1443C5.6926 44.2682 5.69117 42.3921 5.69975 40.516C5.70261 39.8286 6.06012 39.4835 6.75513 39.4722C7.34432 39.4622 7.93208 39.4707 8.6228 39.4707C8.6228 39.2421 8.6228 39.0305 8.6228 38.8203C8.6228 36.7624 8.59563 34.7045 8.62853 32.6466C8.69574 28.342 10.5262 24.9334 14.007 22.3856C14.1185 22.3032 14.2286 22.2194 14.4203 22.0774C12.3996 22.0774 10.469 22.0774 8.53414 22.0774C7.53595 24.2887 5.8828 25.2984 3.95365 24.871C2.03307 24.4449 0.800358 22.9054 0.821809 20.9568C0.84183 19.139 2.18037 17.5668 4.0466 17.2401C5.63397 16.9632 7.66895 17.6151 8.53557 20.0678C12.4339 20.0678 16.3437 20.0678 20.3264 20.0678C20.3264 19.4756 20.3221 18.8975 20.3278 18.3181C20.335 17.5455 20.6682 17.1975 21.4276 17.1947C23.2967 17.1876 25.1657 17.1876 27.0348 17.1947C27.7656 17.1975 28.1117 17.5469 28.1231 18.2698C28.1317 18.8308 28.1245 19.3918 28.1245 19.9542C32.8437 19.8477 38.3824 15.2419 37.8232 8.47174C37.2269 8.47174 36.6234 8.47884 36.0213 8.47032C35.3263 8.45896 34.9631 8.11385 34.9602 7.43073C34.9517 5.53474 34.9502 3.63733 34.9617 1.74135C34.966 1.09231 35.3292 0.735838 35.9884 0.731577C37.8976 0.721636 39.8082 0.721636 41.7173 0.731577C42.3765 0.734418 42.7469 1.09089 42.7498 1.73567C42.7612 3.65154 42.7612 5.56883 42.7484 7.48469C42.7441 8.09539 42.3723 8.45044 41.753 8.46606C41.1438 8.48168 40.5346 8.4689 39.8425 8.4689C40.0041 13.3303 38.1164 17.1947 34.035 20.0536C36.0342 20.0536 37.9476 20.0536 39.9311 20.0536C40.3087 18.8734 41.0623 17.9431 42.2879 17.4532C43.1259 17.118 43.9896 17.0924 44.8548 17.3396C46.6167 17.8452 47.7393 19.504 47.6249 21.4127C47.5248 23.1042 46.109 24.6395 44.3457 24.9008C42.6997 25.1451 40.752 24.4335 39.9168 22.0604C36.0185 22.0604 32.1087 22.0604 28.126 22.0604C28.126 22.6526 28.1303 23.2306 28.1245 23.8101C28.1174 24.5784 27.7799 24.9306 27.0234 24.9334C25.1543 24.9405 23.2852 24.9405 21.4161 24.9334C20.6868 24.9306 20.3407 24.5798 20.3307 23.8569C20.3221 23.2959 20.3293 22.735 20.3293 21.9808C19.2653 22.272 18.2571 22.4296 17.3462 22.8159C13.2176 24.567 10.9238 27.7185 10.6163 32.1538C10.4476 34.5611 10.5834 36.9868 10.5834 39.4707ZM36.9251 6.49622C38.2494 6.49622 39.515 6.49622 40.7763 6.49622C40.7763 5.20809 40.7763 3.9654 40.7763 2.69857C39.4807 2.69857 38.2151 2.69857 36.9251 2.69857C36.9251 3.97677 36.9251 5.21803 36.9251 6.49622ZM26.1511 19.1716C24.8325 19.1716 23.5669 19.1716 22.3214 19.1716C22.3214 20.474 22.3214 21.7309 22.3214 22.9721C23.6227 22.9721 24.874 22.9721 26.1511 22.9721C26.1511 21.6968 26.1511 20.4555 26.1511 19.1716ZM11.5058 45.2553C11.5058 43.9501 11.5058 42.6932 11.5058 41.452C10.1959 41.452 8.93026 41.452 7.6761 41.452C7.6761 42.7429 7.6761 43.9856 7.6761 45.2553C8.9603 45.2553 10.2102 45.2553 11.5058 45.2553ZM6.6679 21.0847C6.67648 20.0536 5.78126 19.1489 4.73732 19.1347C3.70624 19.1191 2.78528 20.0181 2.77241 21.0506C2.75954 22.0788 3.65619 22.9863 4.70157 23.0034C5.72978 23.0176 6.65932 22.1115 6.6679 21.0847ZM43.7337 19.1333C42.6897 19.1333 41.7902 20.0223 41.7816 21.0634C41.773 22.0873 42.6926 23.0034 43.7251 23.0034C44.769 23.002 45.6728 22.1072 45.6757 21.0719C45.6785 20.0394 44.7704 19.1333 43.7337 19.1333Z" fill="url(#paint0_linear)"/>
<path d="M29.7349 26.521C29.9666 26.7028 30.3828 26.8604 30.4843 27.1331C31.6941 30.3598 34.304 32.199 37.1198 33.845C37.4859 34.0595 37.8535 34.2839 38.2482 34.4387C38.936 34.7071 39.2077 35.2127 39.3207 35.9072C39.9628 39.8596 40.6235 43.8093 41.3028 47.756C41.38 48.2034 41.6002 48.6295 41.7761 49.057C42.3296 50.3976 42.8973 51.7312 43.4493 53.0719C43.7782 53.8672 43.5923 54.3274 42.7886 54.6597C39.9099 55.8498 37.0283 57.0343 34.1438 58.2117C33.4059 58.5127 32.9683 58.3153 32.6394 57.5754C32.5407 57.3553 32.4321 57.1351 32.3634 56.9051C31.1722 52.8873 28.5179 49.723 26.144 46.3955C25.1701 45.0306 24.2048 43.6601 23.2052 42.3138C22.8534 41.8408 22.8491 41.3992 22.9836 40.8467C23.4083 39.0913 23.8402 37.3331 24.1248 35.5521C24.4036 33.8124 24.0847 32.101 23.4355 30.4593C23.0694 29.5333 23.231 29.1342 24.1448 28.7564C25.7336 28.0989 27.3238 27.4427 28.9155 26.7923C29.1415 26.6999 29.376 26.6389 29.7349 26.521ZM25.6435 30.2704C25.8251 31.5755 26.0797 32.8026 26.1512 34.0382C26.287 36.3801 25.7493 38.6368 25.0829 40.868C25.0114 41.1094 25.0557 41.4759 25.1987 41.6775C27.2652 44.5975 29.3603 47.4961 31.4367 50.409C31.6512 50.7101 31.8357 50.7683 32.1846 50.622C34.387 49.6961 36.595 48.7829 38.8116 47.8952C39.2006 47.739 39.2764 47.5359 39.2135 47.1666C38.6143 43.6942 38.0122 40.2232 37.4473 36.7465C37.3758 36.3034 37.1756 36.0932 36.8095 35.9015C35.0448 34.977 33.3845 33.8976 31.9072 32.5512C30.746 31.4932 29.7921 30.2789 29.0742 28.8572C28.7696 28.9851 28.5137 29.0916 28.2191 29.2151C29.3345 31.8866 30.43 34.5253 31.5468 37.1527C31.6026 37.282 31.85 37.3871 32.0188 37.4055C33.3902 37.5532 34.4527 38.5161 34.6773 39.844C34.8918 41.108 34.1639 42.4373 32.9698 42.9628C31.7513 43.4982 30.3484 43.1645 29.5018 42.1377C28.6481 41.1023 28.6066 39.6353 29.4561 38.563C29.7206 38.2292 29.7535 37.9779 29.5919 37.5972C28.5995 35.261 27.6313 32.9162 26.6517 30.5743C26.5687 30.3769 26.4672 30.1866 26.3628 29.9679C26.0568 30.0957 25.8008 30.2036 25.6435 30.2704ZM34.1567 56.0913C36.5721 55.0957 38.9475 54.1158 41.3414 53.1287C40.8251 51.8988 40.3461 50.7584 39.8498 49.5782C37.423 50.578 35.0662 51.5494 32.6709 52.5365C33.1843 53.7621 33.6619 54.9068 34.1567 56.0913ZM31.7685 41.2657C32.269 41.2728 32.7438 40.8126 32.7495 40.3127C32.7552 39.8114 32.2991 39.3512 31.7899 39.3455C31.278 39.3399 30.8175 39.7844 30.8103 40.2914C30.8018 40.7913 31.2622 41.2586 31.7685 41.2657Z" fill="url(#paint1_linear)"/>
<defs>
<linearGradient id="paint0_linear" x1="-1.32972" y1="61.9397" x2="48.0651" y2="60.8902" gradientUnits="userSpaceOnUse">
<stop stop-color="#60B1FD"/>
<stop offset="0.505208" stop-color="#F49AEA"/>
<stop offset="1" stop-color="#FFB2AE"/>
</linearGradient>
<linearGradient id="paint1_linear" x1="21.9505" y1="68.4251" x2="43.8006" y2="68.1251" gradientUnits="userSpaceOnUse">
<stop stop-color="#60B1FD"/>
<stop offset="0.505208" stop-color="#F49AEA"/>
<stop offset="1" stop-color="#FFB2AE"/>
</linearGradient>
</defs>
</svg>
