<svg width="61" height="58" viewBox="0 0 61 58" fill="none" xmlns="http://www.w3.org/2000/svg">
<path d="M19.9373 57.0599C18.9344 57.0599 17.9126 56.9731 16.897 56.8012C8.93152 55.4508 3.63018 50.824 1.14056 43.05C0.891442 42.2707 0.758146 41.4614 0.616925 40.6048C0.555042 40.2294 0.49157 39.8413 0.416992 39.458V36.2241C0.445554 36.0505 0.472532 35.877 0.499507 35.7051C0.559803 35.3201 0.621687 34.9226 0.697851 34.5393C1.90061 28.5416 5.22169 23.9999 10.5691 21.0389C11.1324 20.7266 11.2054 20.2864 11.2006 19.8984C11.1927 19.0922 11.1831 18.1773 11.2847 17.2986C11.7607 13.1655 13.3586 9.5893 16.0339 6.6709C19.9579 2.38952 24.7658 0.217285 30.321 0.217285C31.1588 0.217285 32.0268 0.266188 32.8995 0.365571C36.7601 0.799388 40.2192 2.36586 43.1801 5.02397C47.5436 8.93936 49.7254 13.9038 49.6667 19.7769C49.6604 20.4316 49.8809 20.8086 50.4553 21.1194C57.8195 25.1073 61.7721 33.5959 60.0695 41.7627C59.1349 46.2444 56.7421 50.0951 53.1497 52.8984C49.7334 55.5644 45.4745 57.0331 41.157 57.0331C37.647 57.0331 34.1848 56.0534 31.1477 54.1983C30.9684 54.0894 30.7256 53.9632 30.4289 53.9632C30.2036 53.9632 29.9846 54.0326 29.7387 54.1825C26.581 56.0913 23.2837 57.0599 19.9373 57.0599ZM11.1213 23.839C6.03412 26.7479 2.89392 32.4017 3.12083 38.2417C3.38265 44.9777 6.76243 50.0399 12.8921 52.8795C15.0786 53.8922 17.335 54.4049 19.5961 54.4065C22.2365 54.4065 24.9467 53.7076 27.6521 52.3289L28.1662 52.067L27.7854 51.6364L27.6711 51.5054C27.6061 51.4313 27.56 51.3777 27.5109 51.3272C23.7201 47.4197 21.8572 42.7092 21.9731 37.3267C21.9842 36.7746 21.7747 36.4244 21.2701 36.1546C18.9075 34.8958 16.8558 33.1574 15.1722 30.9899C13.5887 28.9501 12.4795 26.7006 11.7813 24.1119L11.629 23.5503L11.1213 23.839ZM49.1383 24.0236C49.113 24.093 49.0907 24.1529 49.0701 24.2065C49.0304 24.3122 48.9971 24.4037 48.967 24.5C47.4437 29.6537 44.2638 33.5896 39.5163 36.1957C38.8816 36.5443 38.8911 37.0649 38.899 37.4088C38.991 42.1271 37.5122 46.3817 34.5021 50.0541C34.2133 50.4075 33.8944 50.7545 33.5881 51.0905C33.4406 51.253 33.2914 51.4155 33.1454 51.5796L32.7884 51.9787L33.247 52.2579C35.4922 53.6225 38.3278 54.3734 41.2315 54.3734C43.9195 54.3734 46.5456 53.7203 48.8258 52.4835C54.738 49.278 57.8179 44.1116 57.7306 37.5444C57.6545 31.8149 54.9887 27.1912 49.808 23.7995L49.3303 23.4872L49.1383 24.0236ZM24.6341 38.2243C24.8229 42.9553 26.6175 46.8502 30.1227 50.133L30.4305 50.4217L30.7383 50.1346C34.2435 46.866 36.0397 42.9711 36.2285 38.2307L36.2523 37.6249L35.6636 37.7811C33.9102 38.2449 32.1458 38.4799 30.4225 38.4799C28.693 38.4799 26.9349 38.2433 25.2005 37.7763L24.6087 37.617L24.6341 38.2243ZM30.1274 25.6516C27.4569 28.0983 25.7797 30.9867 24.9974 34.4793L24.907 34.8816L25.3037 35.0031C27.0475 35.5394 28.785 35.8107 30.4686 35.8107C32.1743 35.8107 33.888 35.5315 35.5652 34.9826L35.954 34.8548L35.8635 34.4588C35.0638 30.9504 33.3866 28.0699 30.7352 25.6516L30.4305 25.3739L30.1274 25.6516ZM19.685 21.4222C18.0284 21.4222 16.3274 21.6825 14.6264 22.1968L14.3122 22.2914L14.3075 22.618C14.2583 25.8203 18.6076 31.9616 21.9382 33.3877L22.4174 33.5928L22.5522 33.0927C23.4694 29.6711 25.1751 26.7542 27.7695 24.175L28.2027 23.7443L27.66 23.462C25.0498 22.11 22.3682 21.4222 19.685 21.4222ZM41.1934 21.4207C38.5214 21.4207 35.8334 22.1085 33.2073 23.4635L32.6631 23.7443L33.0978 24.1766C35.689 26.7542 37.3979 29.6758 38.3182 33.1085L38.4341 33.5407L38.8689 33.4255C38.8974 33.4177 38.9196 33.4129 38.9371 33.4098C38.9974 33.3971 39.0783 33.3798 39.1656 33.3246C42.95 30.9236 45.4348 27.5067 46.5519 23.1685C46.6487 22.7931 46.6122 22.3025 45.8934 22.099C44.3162 21.6478 42.7358 21.4207 41.1934 21.4207ZM19.7818 18.7483C23.2171 18.7483 26.5429 19.6933 29.6673 21.5563C29.8609 21.6715 30.1243 21.804 30.44 21.804C30.6828 21.804 30.9208 21.7283 31.1905 21.5642C34.2625 19.7012 37.5868 18.7562 41.0681 18.7562C41.8012 18.7562 42.5533 18.7988 43.3038 18.8809C44.0068 18.9582 44.724 19.0859 45.4174 19.2074C45.7474 19.2658 46.0775 19.3241 46.4091 19.3778L46.9248 19.4614L46.9312 18.9408C46.9788 14.9655 45.2095 10.7756 42.1979 7.73099C39.1259 4.62644 34.9718 2.90537 30.4987 2.88486H30.4162C25.9654 2.88486 21.8144 4.587 18.7297 7.67577C15.6483 10.7598 13.8981 14.8834 13.9266 18.9866L13.9298 19.5213L14.4582 19.4235C14.5185 19.4125 14.574 19.403 14.6296 19.3936C14.7486 19.373 14.8596 19.3541 14.9755 19.3257C16.6035 18.9424 18.2204 18.7483 19.7818 18.7483Z" fill="url(#paint0_linear)"/>
<defs>
<linearGradient id="paint0_linear" x1="-2.34243" y1="75.06" x2="61.0135" y2="73.6477" gradientUnits="userSpaceOnUse">
<stop stop-color="#60B1FD"/>
<stop offset="0.505208" stop-color="#F49AEA"/>
<stop offset="1" stop-color="#FFB2AE"/>
</linearGradient>
</defs>
</svg>
