<svg width="65" height="54" viewBox="0 0 65 54" fill="none" xmlns="http://www.w3.org/2000/svg">
<path d="M3.95816 53.7795V45.1638H6.80795V44.9271C6.80795 44.6153 6.80455 44.3119 6.80115 44.0135C6.79436 43.3917 6.78757 42.8065 6.81133 42.2197C7.09139 35.3244 8.70893 29.3294 11.7573 23.8963C13.7533 20.3386 16.4368 17.2044 19.733 14.5837C19.8467 14.4937 19.9587 14.402 20.1064 14.282L20.3915 14.0486L20.1878 13.6351L18.2699 14.0386C16.8611 14.3353 15.5084 14.6204 14.1556 14.9071C13.4733 15.0522 12.791 15.1989 12.1086 15.3456C10.7627 15.634 9.37258 15.9341 8.00285 16.2142C7.51742 16.3142 7.24076 16.5426 7.05066 17.006C6.57202 18.1697 5.38051 18.9532 4.08377 18.9532C3.81389 18.9532 3.54741 18.9182 3.29112 18.8482C1.63284 18.3948 0.628042 16.936 0.845298 15.2989C1.04897 13.7668 2.43907 12.5565 4.00909 12.5465H4.03794C4.93072 12.5465 5.66396 12.8282 6.21559 13.3834C6.47867 13.6484 6.75363 13.7735 7.07781 13.7735C7.18474 13.7735 7.29847 13.7601 7.42577 13.7335C10.6608 13.0366 13.8976 12.3448 17.1344 11.6529L21.8631 10.641C22.3366 10.5393 22.8102 10.4359 23.282 10.3309C24.2325 10.1225 25.2136 9.90575 26.1827 9.7157C26.6529 9.624 26.843 9.39061 26.8362 8.91047C26.8243 8.07358 26.8277 7.25335 26.8294 6.38644C26.8294 6.13804 26.8311 5.88797 26.8311 5.63624H35.6775V7.68013L38.5425 7.07163C40.5012 6.65485 42.426 6.24641 44.349 5.83629C45.4268 5.60623 46.5046 5.37617 47.5824 5.14443C49.8755 4.6543 52.1685 4.1625 54.4633 3.67903C54.8961 3.58734 55.2288 3.42229 55.4376 2.91215C55.9213 1.73349 57.1077 0.939941 58.3892 0.939941C58.6557 0.939941 58.9221 0.974951 59.1784 1.04164C60.8876 1.49176 61.8228 2.86881 61.6209 4.63596C61.4528 6.1047 60.0542 7.32003 58.5012 7.34504H58.435C57.549 7.34504 56.8124 7.05496 56.2438 6.48147C55.9892 6.22473 55.7431 6.11137 55.4444 6.11137C55.351 6.11137 55.256 6.12304 55.149 6.14471C47.9219 7.70347 41.9389 8.98383 36.3259 10.1758C35.9966 10.2458 35.6266 10.3959 35.6877 10.946C35.6911 10.9827 35.6911 10.9944 35.6894 10.9977C35.445 12.2464 36.1324 12.8899 36.9131 13.3984C43.9434 17.9813 51.067 22.6743 57.9581 27.2122C59.8743 28.4742 61.7906 29.7362 63.7069 30.9982C63.8206 31.0733 63.9343 31.1499 64.0633 31.2366L55.0183 33.8073L63.1094 43.9635L54.9606 49.8901L46.9799 39.8974L42.2376 47.1093L41.91 46.0474C41.5875 45.0071 41.2769 44.0018 40.9697 42.9949L39.7799 39.1121C37.3663 31.2383 34.8696 23.0977 32.4322 15.0855C32.254 14.502 31.9485 14.2753 31.3409 14.2753H31.2815C30.6942 14.287 30.0509 14.2936 29.2566 14.2936C29.2549 14.2936 29.2549 14.2936 29.2532 14.2936C28.8221 14.2936 28.3909 14.292 27.9581 14.2903C27.5915 14.2886 27.2232 14.287 26.8532 14.287L26.7547 13.1116L26.4221 13.3084C26.069 13.5184 25.7211 13.7185 25.3799 13.9152C24.6433 14.3403 23.9491 14.7404 23.2702 15.1889C17.1615 19.22 12.9862 25.0883 10.8628 32.6337C9.82067 36.3364 9.30638 40.3375 9.33693 44.5236C9.33693 44.602 9.34543 44.677 9.35561 44.7654C9.3607 44.8087 9.36579 44.8587 9.37258 44.9154L9.39295 45.1288H12.7078V53.7779H3.95816V53.7795ZM8.53581 47.7078C8.14712 47.7078 7.63284 47.7095 7.11686 47.7245C6.87245 47.7312 6.56184 48.0313 6.55335 48.2663C6.53298 48.9515 6.53467 49.6234 6.53637 50.3352C6.53637 50.5503 6.53807 51.2221 6.53807 51.2221H10.0939V47.7095C10.0956 47.7112 8.74967 47.7078 8.53581 47.7078ZM55.4545 46.3358L59.394 43.4717L50.5714 32.392L57.9411 30.2947L35.2328 15.3523L43.11 41.0377L46.7796 35.4711L55.4545 46.3358Z" fill="url(#paint0_linear)"/>
<defs>
<linearGradient id="paint0_linear" x1="-2.09067" y1="70.5121" x2="64.6348" y2="68.8266" gradientUnits="userSpaceOnUse">
<stop stop-color="#60B1FD"/>
<stop offset="0.505208" stop-color="#F49AEA"/>
<stop offset="1" stop-color="#FFB2AE"/>
</linearGradient>
</defs>
</svg>
