<svg width="60" height="60" viewBox="0 0 60 60" fill="none" xmlns="http://www.w3.org/2000/svg">
<path d="M5.55973 59.0284C5.49048 58.9932 5.401 58.9512 5.29291 58.9277C2.99767 58.4346 1.49451 57.1196 0.699028 54.9073C0.621338 54.6926 0.560543 54.4712 0.494676 54.2347C0.469342 54.1441 0.444015 54.0535 0.416992 53.963V14.9828C0.432192 14.9325 0.449088 14.8822 0.465977 14.8302C0.518334 14.6675 0.572362 14.4981 0.617963 14.3253C1.32731 11.692 3.62933 9.92245 6.34679 9.91909C10.157 9.91574 13.9689 9.91406 17.779 9.91406C20.8765 9.91406 32.0166 9.91574 32.0166 9.91574C32.9016 9.91574 33.4522 10.4005 33.4539 11.1804C33.4539 11.5544 33.3255 11.8698 33.0806 12.0929C32.8256 12.3277 32.4574 12.4518 32.02 12.4518C27.389 12.4535 22.758 12.4535 18.127 12.4535H6.81796C4.37579 12.4535 2.97399 13.8423 2.97399 16.2626C2.97399 28.4078 2.97399 40.5547 2.97399 52.7C2.97399 55.1052 4.36398 56.4856 6.78588 56.4856H43.4759C45.913 56.4856 47.3114 55.0935 47.3114 52.6664V44.8469C47.3114 39.1106 47.3114 33.3743 47.3131 27.638C47.3131 26.8161 47.8502 26.1955 48.5612 26.1955C48.7487 26.1955 48.9378 26.2408 49.1236 26.328C49.632 26.5678 49.8684 26.9486 49.8684 27.5273C49.8684 28.8775 49.8684 30.2277 49.8684 31.5779V33.755C49.8684 35.6285 49.8633 37.5004 49.8583 39.3739C49.8465 43.7533 49.8329 48.282 49.8921 52.7352C49.9377 56.2072 47.3992 58.6158 44.9199 58.9378C44.8219 58.9512 44.7409 58.9864 44.6801 59.025H5.55973V59.0284Z" fill="url(#paint0_linear)"/>
<path d="M22.7343 38.1625C22.3121 38.1625 21.949 38.0032 21.7091 37.713C21.4558 37.4061 21.368 36.9817 21.4609 36.5188C21.6196 35.7305 21.7784 34.9421 21.9354 34.1538C22.2935 32.3558 22.6651 30.4956 23.0603 28.6741C23.1447 28.2883 23.3659 27.8724 23.6243 27.6141C31.8984 19.3668 40.0896 11.2303 49.8431 1.55237C50.6386 0.762371 51.5726 0.344727 52.542 0.344727C53.5148 0.344727 54.4539 0.764048 55.2578 1.55573C56.5228 2.80195 57.4922 3.76639 58.4026 4.68051C59.1305 5.41349 59.4851 6.25884 59.4868 7.26857C59.4818 8.16927 59.1896 8.94082 58.5951 9.6218C58.4346 9.80463 58.2607 9.97906 58.0766 10.1619L52.5504 15.65C45.9316 22.2216 39.0898 29.0163 32.3696 35.712C31.846 36.2336 31.2853 36.5272 30.5506 36.6664C28.5594 37.0404 26.5395 37.4413 24.5854 37.8287L23.0924 38.1239C22.9708 38.1491 22.8508 38.1625 22.7343 38.1625ZM47.0699 7.80027C47.0226 7.86233 46.9753 7.92606 46.9297 7.9898C46.8453 8.10721 46.7642 8.21624 46.6798 8.30178L43.7124 11.2521C38.0781 16.8543 32.2513 22.6476 26.4972 28.3202C25.7946 29.0129 25.3977 29.7761 25.2474 30.7221C25.1545 31.3024 25.0312 31.8928 24.9096 32.4648C24.8404 32.7885 24.7728 33.1122 24.7087 33.4376C24.6614 33.6808 24.6242 33.9257 24.5854 34.184C24.5668 34.3081 24.5465 34.4373 24.5246 34.5748L24.4165 35.2491L25.0904 35.1149C25.5177 35.031 25.9382 34.9488 26.3537 34.8667C27.5376 34.6352 28.6557 34.4171 29.7805 34.1723C30.1504 34.0917 30.5489 33.8687 30.8445 33.5751C37.1661 27.3138 43.584 20.9385 49.7908 14.7744L51.5624 13.015C51.6705 12.9076 51.7735 12.7969 51.8698 12.6963L51.983 12.5772L52.3039 12.2417L47.4026 7.37256L47.0699 7.80027ZM52.5386 2.91433C52.3512 2.91433 52.0674 2.97136 51.782 3.24643C51.2905 3.72111 50.8024 4.20416 50.3312 4.67213C50.1437 4.85663 49.4344 5.55941 49.4344 5.55941L54.2613 10.3548L55.1683 9.44569C55.6276 8.98611 56.0837 8.52821 56.5397 8.07031C57.0328 7.57216 57.0413 6.96498 56.5599 6.48528C55.4841 5.41517 54.4083 4.34506 53.3307 3.27662C53.0318 2.97639 52.7346 2.91433 52.5386 2.91433Z" fill="url(#paint1_linear)"/>
<defs>
<linearGradient id="paint0_linear" x1="-1.8567" y1="74.5813" x2="50.3494" y2="73.4714" gradientUnits="userSpaceOnUse">
<stop stop-color="#60B1FD"/>
<stop offset="0.505208" stop-color="#F49AEA"/>
<stop offset="1" stop-color="#FFB2AE"/>
</linearGradient>
<linearGradient id="paint1_linear" x1="19.6756" y1="50.1382" x2="59.8383" y2="49.2851" gradientUnits="userSpaceOnUse">
<stop stop-color="#60B1FD"/>
<stop offset="0.505208" stop-color="#F49AEA"/>
<stop offset="1" stop-color="#FFB2AE"/>
</linearGradient>
</defs>
</svg>
