<svg width="47" height="55" viewBox="0 0 47 55" fill="none" xmlns="http://www.w3.org/2000/svg">
<path d="M1.91069 54.802C0.9193 54.802 0.632172 54.5186 0.632172 53.5374L0.630482 38.7219C0.630482 26.4442 0.628826 14.1681 0.62207 1.89035C0.62207 1.28988 0.817983 0.900754 1.25372 0.635742H33.9782C34.093 0.744766 34.2078 0.852112 34.3227 0.961136C34.6148 1.23621 34.9188 1.52135 35.2077 1.80817C36.3021 2.89337 37.3948 3.97857 38.4876 5.06378C40.7862 7.34657 43.1641 9.70819 45.5117 12.0228C45.8765 12.3835 46.0319 12.7558 46.0319 13.2707C46.0252 22.9101 46.0252 32.5512 46.0252 42.1905V53.5005C46.0252 54.5337 45.7583 54.802 44.7281 54.802H23.3194H1.91069ZM2.47312 52.957H44.1707V13.8192H33.968C33.0374 13.8192 32.7216 13.5022 32.7199 12.5663C32.7182 11.4492 32.7182 10.3321 32.7182 9.21506V6.98931H27.5687C27.3272 6.98931 27.0975 6.99098 26.8695 6.99098C26.6415 6.99266 26.4152 6.99266 26.1872 6.99266C25.7616 6.99266 25.417 6.9893 25.1029 6.98092C24.6638 6.96918 24.3141 6.67565 24.2314 6.2513C24.1537 5.85546 24.3767 5.42607 24.7263 5.29525C24.9847 5.19964 25.2938 5.18454 25.5353 5.18454C26.6179 5.17951 27.6988 5.17783 28.7814 5.17783L32.6861 5.17951V2.48243H2.47143V52.957H2.47312ZM34.6148 11.9708H42.644L34.6148 3.99702V11.9708Z" fill="url(#paint0_linear)"/>
<path d="M10.742 44.2353C10.0276 44.2353 9.29119 44.2303 8.55482 44.2202C7.88431 44.2102 7.53807 43.8781 7.52456 43.234C7.49247 41.7261 7.49247 40.24 7.52456 38.816C7.53976 38.1585 7.85897 37.8784 8.62574 37.8516C9.66105 37.8147 9.76072 37.7308 9.95157 36.7479L9.95998 36.7043C11.0257 31.2196 14.2414 27.5832 19.5176 25.8925C20.1949 25.6761 20.151 25.2216 20.1206 24.8895C20.1138 24.8157 20.1054 24.7385 20.1054 24.658L20.1037 24.4215H17.979C17.653 24.4215 17.3288 24.4232 17.0028 24.4232C16.6786 24.4249 16.3526 24.4249 16.0283 24.4249C15.4254 24.4249 14.9373 24.4215 14.4914 24.4131H14.4559C14.0134 24.4131 13.7483 24.5809 13.5389 24.9901C13.0254 25.9998 11.9023 26.7043 10.8095 26.7043C10.6947 26.7043 10.5815 26.6959 10.4717 26.6808C8.95507 26.4678 7.87418 25.5336 7.5803 24.1783C7.25265 22.6704 8.13764 21.077 9.59518 20.5487C9.96844 20.4145 10.3535 20.3457 10.742 20.3457C11.9192 20.3457 12.9849 20.9848 13.5219 22.0129C13.7533 22.4557 14.0337 22.6285 14.5184 22.6285H14.5505C15.5048 22.6151 16.4641 22.6134 17.192 22.6134L19.7051 22.6151C19.7541 22.6151 19.798 22.6067 19.8284 22.6L19.8504 22.5949L19.9787 22.5731L20.0294 22.4541C20.4195 21.545 20.5513 21.4611 21.5849 21.4611H23.7332C24.2348 21.4611 24.7365 21.4611 25.2381 21.4628C26.0977 21.4645 26.324 21.6305 26.5858 22.4541L26.6382 22.6201L29.1175 22.6218C30.1005 22.6218 31.2625 22.6201 32.4396 22.6017C32.7741 22.5966 33.0392 22.1421 33.0882 22.0515C33.681 20.9646 34.7096 20.3658 35.9864 20.3658C36.1215 20.3658 36.2617 20.3725 36.4002 20.386C37.5318 20.4933 38.6194 21.4108 38.9859 22.5681C39.4791 24.1213 38.6769 25.8288 37.1602 26.4544C36.7667 26.6171 36.3512 26.6993 35.9273 26.6993C34.745 26.6993 33.6759 26.0619 33.1372 25.0354C32.9024 24.5892 32.6237 24.4148 32.1424 24.4148H32.1086C31.4871 24.4249 30.8031 24.4299 29.9569 24.4299C29.5279 24.4299 29.0989 24.4282 28.6716 24.4282C28.2426 24.4265 27.8137 24.4265 27.3847 24.4265H26.6061L26.5791 24.6329C26.4642 25.505 26.498 25.6476 27.2698 25.916L27.3425 25.9411C32.7386 27.818 35.8986 31.5986 36.7329 37.1773C36.7633 37.3819 36.8359 37.8616 37.4254 37.8616C37.4558 37.8616 37.4862 37.8599 37.52 37.8583C37.6466 37.8499 37.7648 37.8449 37.8729 37.8449C38.3661 37.8449 38.6853 37.9354 38.8728 38.1283C39.0957 38.3548 39.1768 38.7539 39.1548 39.5037C39.1329 40.2266 39.1379 40.9596 39.143 41.6691C39.1464 42.1052 39.1498 42.5413 39.1464 42.9774C39.1396 43.9133 38.8221 44.2286 37.8881 44.232C37.2176 44.2336 36.5454 44.2353 35.8749 44.2353C35.2382 44.2353 34.6032 44.2336 33.9664 44.232C33.0595 44.2286 32.72 43.8848 32.7183 42.9623C32.7149 41.6825 32.7149 40.401 32.7183 39.1213C32.72 38.1753 33.024 37.8683 33.9648 37.8566C34.0509 37.8549 34.1353 37.8549 34.2232 37.8549L34.9528 37.8566L34.9359 37.6033C34.8616 36.4896 34.6032 35.4296 34.1438 34.3645C32.7116 31.0384 30.2575 28.7992 26.851 27.709C26.7699 27.6822 26.6804 27.6704 26.5791 27.6704C26.4625 27.6704 26.3494 27.6872 26.2413 27.7023C26.194 27.709 26.1484 27.7157 26.1028 27.7207C25.9812 27.7342 25.8629 27.756 25.7498 27.7778C25.5876 27.808 25.4339 27.8365 25.287 27.8382C24.6182 27.8449 23.9511 27.8499 23.2823 27.8499C22.5999 27.8499 21.975 27.8449 21.3704 27.8365C21.2032 27.8331 21.0293 27.7912 20.8452 27.7476C20.7236 27.7191 20.5985 27.6889 20.4702 27.6687C20.379 27.6536 20.2692 27.6402 20.1611 27.6402C20.0699 27.6402 19.9889 27.6503 19.9129 27.6704C15.7581 28.811 12.3414 32.7308 11.7891 36.9894C11.7739 37.1018 11.757 37.2142 11.735 37.3501L11.6557 37.8616H11.9344C12.0475 37.8616 12.1573 37.8599 12.2637 37.8583C12.3633 37.8566 12.4613 37.8549 12.5576 37.8549C12.6724 37.8549 12.7873 37.8566 12.9004 37.8633C13.5811 37.8985 13.9171 38.2256 13.929 38.863C13.956 40.3625 13.956 41.8301 13.9273 43.229C13.9138 43.863 13.549 44.2186 12.8987 44.2286C12.1928 44.2303 11.4665 44.2353 10.742 44.2353ZM9.36213 42.3534H12.0509V39.6781H9.36213V42.3534ZM34.6049 42.3517H37.2936V39.6731H34.6049V42.3517ZM22.0021 26.0015H24.6655V23.3246H22.0021V26.0015ZM10.7166 22.1505C10.014 22.1505 9.36042 22.7895 9.34354 23.4923C9.33509 23.8294 9.47697 24.1733 9.73031 24.4349C9.9904 24.705 10.3434 24.8626 10.6981 24.8677H10.72C11.4597 24.8677 12.0695 24.2689 12.0779 23.5326C12.0863 22.7962 11.4733 22.1639 10.7386 22.1505H10.7166ZM35.9357 22.1505C35.2179 22.1505 34.5846 22.7862 34.5795 23.5091C34.5778 23.868 34.718 24.2085 34.9764 24.4668C35.2348 24.7251 35.5743 24.8677 35.9323 24.8694C36.6653 24.8694 37.3088 24.2387 37.3122 23.5208C37.3156 22.8096 36.6653 22.1572 35.9476 22.1488H35.9357V22.1505Z" fill="url(#paint1_linear)"/>
<path d="M21.8115 6.98602C21.3234 6.98434 20.9112 6.59521 20.8926 6.11718C20.8842 5.88907 20.9721 5.66599 21.1393 5.49156C21.3116 5.31041 21.5514 5.20474 21.7946 5.19971C22.3081 5.19971 22.7338 5.60393 22.7405 6.08364C22.7439 6.30504 22.6476 6.5298 22.477 6.70256C22.298 6.8837 22.0565 6.98602 21.8132 6.98602H21.8115Z" fill="url(#paint2_linear)"/>
<defs>
<linearGradient id="paint0_linear" x1="-1.46478" y1="71.9547" x2="46.4578" y2="71.1069" gradientUnits="userSpaceOnUse">
<stop stop-color="#60B1FD"/>
<stop offset="0.505208" stop-color="#F49AEA"/>
<stop offset="1" stop-color="#FFB2AE"/>
</linearGradient>
<linearGradient id="paint1_linear" x1="6.04563" y1="51.8004" x2="39.4395" y2="50.8665" gradientUnits="userSpaceOnUse">
<stop stop-color="#60B1FD"/>
<stop offset="0.505208" stop-color="#F49AEA"/>
<stop offset="1" stop-color="#FFB2AE"/>
</linearGradient>
<linearGradient id="paint2_linear" x1="20.8071" y1="7.55168" x2="22.7576" y2="7.50909" gradientUnits="userSpaceOnUse">
<stop stop-color="#60B1FD"/>
<stop offset="0.505208" stop-color="#F49AEA"/>
<stop offset="1" stop-color="#FFB2AE"/>
</linearGradient>
</defs>
</svg>
