<svg width="50" height="50" viewBox="0 0 50 50" fill="none" xmlns="http://www.w3.org/2000/svg">
<path d="M49.8582 3.30489C49.8582 12.772 49.8582 22.2405 49.8582 31.7076C49.8232 31.7952 49.7817 31.8802 49.7545 31.969C49.2902 33.5132 48.2839 34.4933 46.6603 34.6916C45.7046 34.8075 44.7268 34.7483 43.7581 34.7637C43.312 34.7702 42.8672 34.765 42.4626 34.765C42.4146 34.8462 42.4003 34.859 42.4003 34.8732C42.3938 36.1083 42.4016 37.3446 42.3809 38.5797C42.351 40.3376 41.0828 41.8779 39.3295 42.0904C38.0872 42.2411 36.8163 42.1677 35.5584 42.1935C35.3548 42.1973 35.1512 42.1935 34.91 42.1935C34.91 43.4414 34.9165 44.6262 34.9087 45.8111C34.8996 46.9959 34.5067 48.0443 33.5354 48.7526C33.005 49.1389 32.3358 49.336 31.7289 49.618C22.2597 49.618 12.7917 49.618 3.3225 49.618C3.22006 49.5807 3.1202 49.5343 3.01516 49.5073C1.3799 49.081 0.224445 47.6515 0.224445 46.003C0.219258 36.9235 0.219258 27.844 0.225742 18.7658C0.227039 17.013 1.57182 15.4418 3.33158 15.2615C4.5791 15.134 5.84608 15.1958 7.10398 15.1739C7.28942 15.1713 7.47616 15.1739 7.69273 15.1739C7.69273 13.8667 7.68235 12.6342 7.69532 11.4017C7.71477 9.61546 8.97656 8.06615 10.7519 7.8485C11.9942 7.69653 13.2638 7.77252 14.5217 7.74805C14.7253 7.74418 14.9289 7.74805 15.1675 7.74805C15.1675 6.46533 15.1506 5.24829 15.1714 4.03254C15.2064 1.9346 16.8131 0.333773 18.8945 0.332485C27.9877 0.326046 37.0821 0.327333 46.1753 0.332485C47.7963 0.333773 49.1696 1.34862 49.6806 2.87861C49.7324 3.02027 49.7999 3.16194 49.8582 3.30489ZM9.67813 15.1713C9.88043 15.1713 10.0685 15.1713 10.2578 15.1713C13.6982 15.1713 17.1399 15.1713 20.5803 15.1713C24.07 15.1713 27.5597 15.1662 31.0481 15.1726C33.0724 15.1765 34.6934 16.4335 34.8296 18.4206C34.9943 20.8161 34.9074 23.2296 34.8841 25.634C34.8789 26.238 34.2953 26.6063 33.7169 26.4956C33.2242 26.4016 32.9402 25.9895 32.9376 25.3249C32.9324 23.2399 32.9402 21.1535 32.9337 19.0684C32.9298 17.7922 32.271 17.1379 30.9976 17.1379C22.0315 17.1366 13.0654 17.1366 4.09929 17.1379C2.84528 17.1379 2.15668 17.8244 2.15668 19.0749C2.15538 27.947 2.15538 36.8192 2.15668 45.6913C2.15668 46.9792 2.86344 47.6772 4.17061 47.6772C13.0887 47.6785 22.0055 47.6785 30.9236 47.6772C32.249 47.6772 32.9285 47.0088 32.9337 45.7003C32.9402 44.2077 32.935 42.7163 32.935 41.2237C32.935 39.4748 32.9311 37.7258 32.9376 35.9769C32.9402 35.1926 33.3046 34.7676 33.94 34.7779C34.5521 34.7869 34.9035 35.2158 34.9087 35.9666C34.9126 36.5436 34.91 37.1218 34.91 37.6988C34.91 38.5295 34.91 39.3589 34.91 40.2462C36.0719 40.2462 37.1833 40.2475 38.2934 40.2462C39.7886 40.2449 40.4357 39.5958 40.4357 38.098C40.4357 29.3379 40.4357 20.5778 40.4357 11.819C40.4357 10.3277 39.7873 9.6863 38.2791 9.6863C29.4582 9.6863 20.6374 9.6863 11.8179 9.68758C11.6078 9.68758 11.3964 9.69145 11.1902 9.71849C10.368 9.82796 9.74038 10.356 9.69629 11.1764C9.62755 12.4848 9.67813 13.7972 9.67813 15.1713ZM42.3874 32.7843C43.7672 32.7843 45.0756 32.8113 46.3815 32.765C46.7031 32.7534 47.0584 32.5537 47.3256 32.3477C47.8223 31.9652 47.926 31.3972 47.926 30.7932C47.9208 21.9996 47.9221 13.2073 47.9221 4.41375C47.9221 2.8902 47.2802 2.25656 45.7396 2.25656C37.2404 2.25656 28.7424 2.25656 20.2432 2.25656C19.823 2.25656 19.4028 2.24884 18.9827 2.25785C17.8713 2.28232 17.1698 2.96489 17.1477 4.06602C17.1296 4.93276 17.1438 5.7995 17.1425 6.66495C17.1425 7.01139 17.1425 7.35782 17.1425 7.7429C17.4032 7.7429 17.5938 7.7429 17.7844 7.7429C24.6354 7.7429 31.4851 7.7429 38.3362 7.7429C40.8468 7.7429 42.3861 9.26774 42.3874 11.7546C42.3874 18.5584 42.3874 25.361 42.3874 32.1648C42.3874 32.3554 42.3874 32.5447 42.3874 32.7843Z" fill="url(#paint0_linear)"/>
<path d="M33.931 31.6238C33.3772 31.6289 32.9609 31.2168 32.9571 30.6592C32.9532 30.1402 33.3668 29.7126 33.8908 29.6958C34.4186 29.6778 34.8945 30.1247 34.9023 30.6437C34.9087 31.1782 34.473 31.6186 33.931 31.6238Z" fill="url(#paint1_linear)"/>
<defs>
<linearGradient id="paint0_linear" x1="-2.06043" y1="65.2265" x2="50.3165" y2="64.1134" gradientUnits="userSpaceOnUse">
<stop stop-color="#60B1FD"/>
<stop offset="0.505208" stop-color="#F49AEA"/>
<stop offset="1" stop-color="#FFB2AE"/>
</linearGradient>
<linearGradient id="paint1_linear" x1="32.8676" y1="32.2345" x2="34.9203" y2="32.1908" gradientUnits="userSpaceOnUse">
<stop stop-color="#60B1FD"/>
<stop offset="0.505208" stop-color="#F49AEA"/>
<stop offset="1" stop-color="#FFB2AE"/>
</linearGradient>
</defs>
</svg>
