<svg width="64" height="64" viewBox="0 0 64 64" fill="none" xmlns="http://www.w3.org/2000/svg">
<path d="M8.34438 63.9998C7.29588 63.9998 6.2583 63.4943 5.26429 62.5008C4.94386 62.1805 4.62557 61.858 4.30731 61.5377C3.57489 60.7991 2.81857 60.0344 2.05126 59.3023C1.19023 58.4809 0.324796 57.5767 0 56.3609V54.864C0.333516 53.6809 1.19454 52.8203 2.10789 51.9074L2.13184 51.8834C14.6528 39.3792 27.1695 26.8685 39.6862 14.3556L49.0682 4.97582C50.5571 3.48769 52.4448 2.66846 54.3849 2.66846C56.4448 2.66846 58.3391 3.57484 59.7211 5.22202C61.8574 7.76905 61.8596 11.6125 59.7255 14.1617C59.4792 14.4558 59.2001 14.7412 58.9364 15.0049C43.0976 30.8383 27.2589 46.6695 11.4202 62.5008C10.4284 63.4965 9.39288 63.9998 8.34438 63.9998ZM43.0104 14.7434L42.9341 14.811C42.8513 14.8829 42.7554 14.97 42.6616 15.0637C29.5085 28.2106 16.3553 41.3554 3.20217 54.5045C2.37601 55.3325 2.37164 55.9164 3.19344 56.74C4.18091 57.7313 5.17053 58.7183 6.16018 59.7075L7.06702 60.6139C7.46376 61.0105 7.84084 61.3874 8.34874 61.3874C8.85665 61.3874 9.22942 61.0148 9.62397 60.6204L12.885 57.361C24.861 45.3906 36.8349 33.4224 48.8153 21.4585C48.8458 21.428 48.9614 21.3779 49.0312 21.3496C49.1053 21.3169 49.175 21.2864 49.2317 21.2559L49.9641 20.8615L43.442 14.3469L43.0104 14.7434ZM54.2127 5.26124C53.0813 5.26124 52.035 5.72097 51.1064 6.62953C50.3696 7.35072 49.6306 8.09152 48.9156 8.80834C48.3074 9.41841 47.7014 10.0263 47.0889 10.6298C46.8033 10.9109 46.4894 11.1789 46.1864 11.4403C46.0447 11.5624 45.9052 11.6822 45.7679 11.802L45.2753 12.2378L51.6208 18.5825L52.0568 18.1489C52.5887 17.6216 53.1205 17.0965 53.6524 16.5714C54.9319 15.3077 56.2573 14.0026 57.5347 12.6953C58.4546 11.7563 58.8623 10.5144 58.6857 9.20053C58.4394 7.37469 57.4082 6.10226 55.7058 5.52052C55.2022 5.35057 54.6988 5.26124 54.2127 5.26124Z" fill="url(#paint0_linear)"/>
<path d="M23.9805 16.5895C23.1783 16.5895 22.5658 16.1559 22.302 15.3998C21.6568 13.5522 20.6758 12.1904 19.3025 11.2361C18.6922 10.8113 17.9815 10.4365 17.0638 10.053C15.8257 9.53447 15.6775 8.81329 15.6753 8.31652C15.671 7.46242 16.1091 6.90465 17.0573 6.55822C19.6056 5.62787 21.3386 3.89571 22.2061 1.41187C22.4241 0.788728 22.8208 0.34861 23.4835 0H24.4709C25.1118 0.320285 25.526 0.847556 25.8857 1.78444C26.7664 4.07873 28.471 5.69323 30.9495 6.58436C31.804 6.89158 32.2464 7.43846 32.2682 8.21411C32.2922 9.08564 31.8519 9.68699 30.9603 10.0073C28.6715 10.8265 27.0062 12.3255 26.0121 14.4629C25.9162 14.6677 25.8421 14.8726 25.7723 15.0708C25.7353 15.1754 25.6961 15.28 25.6569 15.3824C25.3517 16.1559 24.7609 16.5851 23.9979 16.5916L23.9805 16.5895ZM20.5429 8.30562L23.974 11.698L27.3767 8.2773L23.9675 4.90886L20.5429 8.30562Z" fill="url(#paint1_linear)"/>
<path d="M55.6728 48.3021C54.8663 48.2956 54.2996 47.8533 53.9901 46.9883C53.3427 45.1886 52.3595 43.853 50.9819 42.9095C50.3803 42.4978 49.6871 42.1339 48.7956 41.7657C47.5531 41.2515 47.3983 40.5412 47.4027 39.979C47.4092 39.1642 47.8583 38.6064 48.7781 38.2709C51.2958 37.3536 53.0418 35.6105 53.966 33.0853C54.3104 32.1462 54.862 31.7104 55.7078 31.7104C56.5448 31.717 57.1028 32.168 57.4385 33.0853C58.3562 35.6018 60.1001 37.3449 62.6243 38.2709C63.5703 38.6173 64.0063 39.1772 63.9997 40.0313C63.9932 40.8571 63.555 41.3996 62.6243 41.7395C60.0804 42.6699 58.3279 44.4347 57.4146 46.9883C57.1028 47.8576 56.5252 48.2978 55.6947 48.2978L55.6728 48.3021ZM52.2746 39.9987L55.7165 43.415L59.0929 40.0161L55.7055 36.6062L52.2746 39.9987Z" fill="url(#paint2_linear)"/>
<path d="M12.6473 27.434C12.4642 27.4318 12.2375 27.3795 12.0937 26.983C11.7514 26.033 11.2065 25.2966 10.4741 24.7933C10.1558 24.5754 9.78962 24.3837 9.32533 24.1897C8.85668 23.9958 8.81748 23.7758 8.81966 23.584C8.82184 23.3901 8.88074 23.1722 9.30361 23.0175C10.6529 22.5273 11.588 21.5926 12.0828 20.2417C12.2376 19.8147 12.4533 19.7559 12.6626 19.7559C12.874 19.758 13.0833 19.8169 13.238 20.2396C13.7285 21.5861 14.6637 22.5208 16.0151 23.0175C16.4663 23.1831 16.5011 23.4075 16.499 23.6058C16.4968 23.8084 16.4379 24.0176 16.0129 24.1723C14.6505 24.6691 13.7133 25.6147 13.2228 26.983C13.0811 27.3795 12.8544 27.4318 12.6538 27.4318H12.6473V27.434Z" fill="url(#paint3_linear)"/>
<defs>
<linearGradient id="paint0_linear" x1="-2.81823" y1="83.4214" x2="61.8913" y2="82.056" gradientUnits="userSpaceOnUse">
<stop stop-color="#60B1FD"/>
<stop offset="0.505208" stop-color="#F49AEA"/>
<stop offset="1" stop-color="#FFB2AE"/>
</linearGradient>
<linearGradient id="paint1_linear" x1="14.9127" y1="21.8457" x2="32.4225" y2="21.4761" gradientUnits="userSpaceOnUse">
<stop stop-color="#60B1FD"/>
<stop offset="0.505208" stop-color="#F49AEA"/>
<stop offset="1" stop-color="#FFB2AE"/>
</linearGradient>
<linearGradient id="paint2_linear" x1="46.6398" y1="53.5561" x2="64.1531" y2="53.1864" gradientUnits="userSpaceOnUse">
<stop stop-color="#60B1FD"/>
<stop offset="0.505208" stop-color="#F49AEA"/>
<stop offset="1" stop-color="#FFB2AE"/>
</linearGradient>
<linearGradient id="paint3_linear" x1="8.46666" y1="29.8654" x2="16.57" y2="29.6944" gradientUnits="userSpaceOnUse">
<stop stop-color="#60B1FD"/>
<stop offset="0.505208" stop-color="#F49AEA"/>
<stop offset="1" stop-color="#FFB2AE"/>
</linearGradient>
</defs>
</svg>
