<svg width="52" height="51" viewBox="0 0 52 51" fill="none" xmlns="http://www.w3.org/2000/svg">
<path d="M49.0422 50.7096C33.4299 50.7096 17.8175 50.7096 2.20518 50.7096C1.21716 50.3758 0.555109 49.72 0.220703 48.7388C0.220703 33.2339 0.220703 17.7291 0.220703 2.22423C0.759468 0.736481 1.83528 0.206458 3.40429 0.234972C7.05741 0.298709 10.7123 0.297032 14.3654 0.23665C15.8939 0.21149 17.2129 1.31515 17.1859 3.03269C17.147 5.41276 17.1757 7.79451 17.1774 10.1746C17.1774 10.344 17.1909 10.5134 17.2045 10.7985C17.3531 10.5553 17.4375 10.4211 17.5186 10.2836C18.716 8.22557 19.9135 6.16754 21.1126 4.10951C22.0145 2.56305 23.423 2.1823 24.9735 3.06959C28.2331 4.93641 31.4927 6.80658 34.7506 8.67676C36.3044 9.56908 36.6878 10.973 35.7943 12.5127C34.6003 14.5724 33.3994 16.6305 32.2037 18.6885C32.1193 18.8327 32.0433 18.982 31.9622 19.1296C32.197 19.0994 32.354 19.0172 32.5077 18.9283C34.5952 17.7324 36.681 16.5332 38.7702 15.3389C40.2092 14.5154 41.6566 14.8995 42.4943 16.3336C44.4062 19.611 46.3146 22.8901 48.218 26.1725C49.0811 27.6603 48.6909 29.0776 47.1911 29.9397C45.0918 31.1474 42.9891 32.3517 40.8898 33.5576C40.7598 33.6314 40.6382 33.7203 40.4017 33.873C40.7277 33.873 40.9084 33.873 41.0908 33.873C43.5211 33.873 45.9515 33.8663 48.3818 33.8763C49.9458 33.883 51.0267 34.9682 51.0284 36.5164C51.0318 40.3758 51.0301 44.2336 51.0267 48.093C51.0267 48.3211 51.0098 48.5526 50.9591 48.774C50.7159 49.8022 49.9813 50.359 49.0422 50.7096ZM18.081 12.719C22.0111 14.9716 25.8888 17.194 29.7953 19.4332C31.3711 16.7194 32.9181 14.0692 34.4466 11.4091C34.7134 10.9445 34.5445 10.5268 34.0142 10.2215C30.6854 8.30776 27.3565 6.399 24.0226 4.4936C23.3909 4.13299 23.0143 4.24704 22.6343 4.88777C22.2492 5.53688 21.8726 6.1927 21.4926 6.84516C20.3627 8.78914 19.2328 10.7331 18.081 12.719ZM38.478 32.9773C41.1263 31.456 43.7272 29.9649 46.3247 28.4688C47.0375 28.0578 47.127 27.7006 46.7064 26.976C44.8267 23.7388 42.9452 20.5033 41.0621 17.2678C40.6331 16.5298 40.27 16.4342 39.5269 16.8602C37.0543 18.2792 34.5834 19.6982 32.1142 21.1189C31.9909 21.1893 31.8727 21.2715 31.7291 21.3638C33.9822 25.2433 36.2166 29.0877 38.478 32.9773ZM15.524 35.614C15.524 40.1024 15.524 44.5523 15.524 48.9954C18.9085 48.9954 22.2526 48.9954 25.5967 48.9954C25.5967 44.5187 25.5967 40.0773 25.5967 35.614C22.2357 35.614 18.9018 35.614 15.524 35.614ZM27.3548 35.619C27.3548 40.1007 27.3548 44.5539 27.3548 49.0055C30.731 49.0055 34.0649 49.0055 37.414 49.0055C37.414 44.5254 37.414 40.0722 37.414 35.619C34.0379 35.619 30.7039 35.619 27.3548 35.619ZM15.4159 11.9777C15.4277 11.8066 15.4446 11.664 15.4446 11.5214C15.4463 8.69689 15.448 5.87234 15.4446 3.04778C15.4429 2.20579 15.1642 1.93574 14.3096 1.93574C10.5721 1.93406 6.8362 1.93406 3.09862 1.93574C2.18999 1.93574 1.91131 2.21249 1.91131 3.11152C1.90962 5.90253 1.91131 8.69521 1.91131 11.4862C1.91131 11.6456 1.9248 11.8049 1.93325 11.9793C6.44434 11.9777 10.9166 11.9777 15.4159 11.9777ZM39.2228 49.0306C39.4407 49.0306 39.6045 49.0306 39.7684 49.0306C42.5466 49.0306 45.3232 49.0306 48.1015 49.0306C49.0726 49.0306 49.3361 48.7673 49.3361 47.8012C49.3361 44.1397 49.3361 40.4781 49.3361 36.8166C49.3361 35.8354 49.0946 35.5905 48.115 35.5905C45.3367 35.5888 42.5602 35.5905 39.7819 35.5905C39.6045 35.5905 39.4289 35.5905 39.2228 35.5905C39.2228 40.089 39.2228 44.5288 39.2228 49.0306ZM13.7202 35.5905C13.526 35.5905 13.3942 35.5905 13.2625 35.5905C9.85935 35.5905 6.45619 35.5888 3.05133 35.5922C2.17478 35.5922 1.91131 35.8622 1.91131 36.7478C1.90962 40.4395 1.90962 44.1313 1.91131 47.823C1.91131 48.7589 2.1832 49.0323 3.1138 49.0323C6.48488 49.034 9.85428 49.0323 13.2254 49.0323C13.3858 49.0323 13.5462 49.0189 13.7202 49.0122C13.7202 44.5288 13.7202 40.0907 13.7202 35.5905ZM28.9931 20.9361C25.0123 18.6549 21.1329 16.4309 17.2247 14.19C15.524 17.1152 13.8519 19.9901 12.1664 22.8918C12.3539 23.0092 12.5025 23.1098 12.6562 23.197C14.5849 24.304 16.5187 25.3993 18.4356 26.5214C18.7481 26.7042 18.9677 26.7042 19.2784 26.5248C22.2712 24.7921 25.2741 23.0746 28.2736 21.3537C28.483 21.2329 28.6907 21.1105 28.9931 20.9361ZM1.93156 23.8025C2.12747 23.8025 2.27274 23.8025 2.41968 23.8025C4.68451 23.8025 6.94766 23.7942 9.21249 23.8126C9.56548 23.816 9.73776 23.6868 9.90328 23.4C11.6597 20.3574 13.4297 17.3232 15.1946 14.2856C15.2824 14.1363 15.3517 13.9753 15.4564 13.7673C10.9099 13.7673 6.43083 13.7673 1.93156 13.7673C1.93156 17.1118 1.93156 20.4211 1.93156 23.8025ZM37.0205 33.873C34.7269 29.9263 32.4874 26.0753 30.2327 22.194C27.2907 23.8814 24.384 25.5486 21.4639 27.2225C21.5483 27.3835 21.6041 27.501 21.6683 27.6133C22.8083 29.5707 23.9584 31.5231 25.0815 33.4906C25.2572 33.7975 25.4548 33.8797 25.7858 33.878C29.2059 33.8679 32.6276 33.8713 36.0477 33.8713C36.328 33.873 36.6084 33.873 37.0205 33.873ZM5.83466 33.7807C5.86337 33.8327 5.89039 33.883 5.91911 33.935C6.20622 33.8495 6.52375 33.8176 6.77709 33.6734C10.1009 31.7814 13.4145 29.876 16.7299 27.9706C16.8498 27.9018 16.9613 27.818 17.1149 27.7156C15.144 26.5852 13.2338 25.4899 11.3 24.3812C9.46243 27.5412 7.64856 30.661 5.83466 33.7807ZM9.93874 33.8327C14.4633 33.8327 18.8562 33.8327 23.3166 33.8327C22.18 31.882 21.0788 29.9917 19.9658 28.0813C16.6218 30.0001 13.3385 31.8837 9.93874 33.8327ZM1.93156 33.9535C2.40952 33.9266 2.8689 33.8663 3.32491 33.883C3.69141 33.8965 3.88058 33.7623 4.05792 33.4536C5.49687 30.9478 6.95441 28.4537 8.40519 25.9545C8.48457 25.8186 8.55214 25.6761 8.63321 25.5184C6.37175 25.5184 4.15417 25.5184 1.92987 25.5184C1.93155 28.358 1.93156 31.1608 1.93156 33.9535Z" fill="url(#paint0_linear)"/>
<path d="M8.69081 45.6759C6.82793 45.6776 5.28596 44.1429 5.29103 42.2911C5.29609 40.4596 6.80598 38.9483 8.66042 38.9232C10.5081 38.898 12.0754 40.4344 12.0906 42.2878C12.1058 44.1278 10.5537 45.6742 8.69081 45.6759ZM10.3578 42.2979C10.3578 41.367 9.64169 40.6491 8.7094 40.6424C7.75854 40.6357 7.00189 41.3737 7.00358 42.3046C7.00527 43.2153 7.74672 43.9584 8.66549 43.9735C9.59777 43.9886 10.3578 43.2355 10.3578 42.2979Z" fill="url(#paint1_linear)"/>
<defs>
<linearGradient id="paint0_linear" x1="-2.11429" y1="66.6936" x2="51.4993" y2="65.5547" gradientUnits="userSpaceOnUse">
<stop stop-color="#60B1FD"/>
<stop offset="0.505208" stop-color="#F49AEA"/>
<stop offset="1" stop-color="#FFB2AE"/>
</linearGradient>
<linearGradient id="paint1_linear" x1="4.97853" y1="47.8144" x2="12.1535" y2="47.6619" gradientUnits="userSpaceOnUse">
<stop stop-color="#60B1FD"/>
<stop offset="0.505208" stop-color="#F49AEA"/>
<stop offset="1" stop-color="#FFB2AE"/>
</linearGradient>
</defs>
</svg>
