<svg width="188" height="195" viewBox="0 0 188 195" fill="none" xmlns="http://www.w3.org/2000/svg">
<path d="M172.88 29.9439C172.769 29.5838 172.656 29.1976 172.517 28.8135C168.33 16.6571 154.413 5.25152 141.711 3.62544C129.628 2.08319 123.391 10.0155 127.1 21.261C127.211 21.6211 127.348 21.979 127.488 22.3632C131.896 34.0023 145.12 44.7766 157.314 46.6789C169.323 48.5955 176.195 41.2461 172.88 29.9439Z" fill="url(#paint0_linear)"/>
<path d="M127.563 8.11645L14.8655 164.96C13.6548 166.634 13.7591 169.365 15.4105 172.768C15.5101 172.998 15.6362 173.225 15.7646 173.479C19.7649 180.97 29.4853 188.813 37.6368 191.139C41.8072 192.321 44.7977 191.855 46.2438 190.138L170.575 42.9664C167.827 46.2322 162.986 47.7354 156.758 46.7369C144.601 44.8224 131.379 34.0072 126.94 22.3882C126.803 22.0299 126.663 21.6453 126.552 21.2851C124.781 15.889 125.286 11.2935 127.563 8.11645Z" fill="url(#paint1_linear)"/>
<g style="mix-blend-mode:screen">
<path d="M99.1577 105.5C70.1237 139.574 52.4873 166.291 56.1622 169.404C59.8371 172.517 84.2451 151.491 114.422 118.329C149.728 79.5062 179.078 39.5103 174.174 35.4127C169.214 31.2931 133.122 65.6219 99.1577 105.5Z" fill="url(#paint2_radial)"/>
</g>
<path d="M129.06 7.05572C129.06 7.05572 128.893 7.27936 128.558 7.72638C128.276 8.16926 127.853 8.83357 127.479 9.75716C126.673 11.5562 126.302 14.3998 126.951 17.6375C127.25 19.2715 127.823 20.9893 128.636 22.7147C129.46 24.5708 130.474 26.1491 131.64 27.9522C134.036 31.3693 137.118 34.7067 140.658 37.4821C142.403 38.8981 144.27 40.173 146.177 41.287C148.108 42.3728 150.034 43.4064 152.013 44.1202C153.97 44.8883 155.936 45.4453 157.806 45.8256C159.754 46.1735 161.495 46.2745 163.188 46.1424C166.523 45.8823 169.134 44.6267 170.533 43.2285C171.249 42.5676 171.756 41.9493 172.067 41.5305C172.375 41.0855 172.514 40.8379 172.514 40.8379C172.514 40.8379 172.404 41.1097 172.179 41.6007C171.928 42.0938 171.563 42.8062 170.884 43.5957C169.606 45.1685 166.998 47.0818 163.366 47.6018C161.606 47.8969 159.531 47.9271 157.543 47.7401C155.47 47.4808 153.332 47.0951 151.188 46.3154C146.912 44.9126 142.735 42.4761 138.967 39.5342C137.133 38.02 135.372 36.4211 133.811 34.6751C132.202 32.9854 130.868 31.0901 129.643 29.2127C128.472 27.3574 127.443 25.2806 126.835 23.4603C126.112 21.5437 125.656 19.6325 125.452 17.8596C125.014 14.2897 125.958 11.2962 126.98 9.53288C127.489 8.62511 128.053 8.05504 128.419 7.65823C128.862 7.22909 129.06 7.05572 129.06 7.05572Z" fill="url(#paint3_linear)"/>
<defs>
<linearGradient id="paint0_linear" x1="151.82" y1="47.7659" x2="148.338" y2="2.65058" gradientUnits="userSpaceOnUse">
<stop stop-color="#DADEE1"/>
<stop offset="0.211" stop-color="#BDBEC6"/>
<stop offset="0.671" stop-color="#726D81"/>
<stop offset="1" stop-color="#3A304C"/>
</linearGradient>
<linearGradient id="paint1_linear" x1="106.669" y1="118.573" x2="65.2028" y2="87.5167" gradientUnits="userSpaceOnUse">
<stop stop-color="#ABA5B5"/>
<stop offset="0.1138" stop-color="#9790A4"/>
<stop offset="0.2995" stop-color="#706783"/>
<stop offset="0.6718" stop-color="#261E2E"/>
<stop offset="0.7156" stop-color="#2B2434"/>
<stop offset="0.7716" stop-color="#3B3343"/>
<stop offset="0.8343" stop-color="#554E5E"/>
<stop offset="0.9018" stop-color="#797282"/>
<stop offset="0.9724" stop-color="#A6A1B1"/>
<stop offset="1" stop-color="#BAB5C5"/>
</linearGradient>
<radialGradient id="paint2_radial" cx="0" cy="0" r="1" gradientUnits="userSpaceOnUse" gradientTransform="translate(115.151 102.4) rotate(-139.633) scale(11.2959 81.3804)">
<stop stop-color="#868990"/>
<stop offset="0.4497" stop-color="#444549"/>
<stop offset="0.8199" stop-color="#131314"/>
<stop offset="1"/>
</radialGradient>
<linearGradient id="paint3_linear" x1="140.842" y1="41.3098" x2="152.707" y2="19.5319" gradientUnits="userSpaceOnUse">
<stop offset="0.00507614" stop-color="#1C1F4C" stop-opacity="0"/>
<stop offset="0.0604" stop-color="#252A55" stop-opacity="0.1037"/>
<stop offset="0.1563" stop-color="#3B466F" stop-opacity="0.2837"/>
<stop offset="0.2814" stop-color="#617498" stop-opacity="0.5184"/>
<stop offset="0.4291" stop-color="#94B3D1" stop-opacity="0.7955"/>
<stop offset="0.5381" stop-color="#BDE6FF"/>
<stop offset="0.638" stop-color="#96B5D3" stop-opacity="0.7836"/>
<stop offset="0.8138" stop-color="#55658B" stop-opacity="0.4031"/>
<stop offset="0.9387" stop-color="#2C325E" stop-opacity="0.1327"/>
<stop offset="1" stop-color="#1C1F4C" stop-opacity="0"/>
</linearGradient>
</defs>
</svg>
