<svg width="29" height="28" viewBox="0 0 29 28" fill="none" xmlns="http://www.w3.org/2000/svg">
<path d="M9.42773 28C8.94339 28 8.44986 27.9573 7.95939 27.8726C4.11227 27.2074 1.55188 24.9283 0.349464 21.0989C0.229145 20.715 0.164768 20.3164 0.0965618 19.8944C0.0666739 19.7095 0.0360188 19.5183 0 19.3295V17.7365C0.0137944 17.651 0.026824 17.5656 0.0398521 17.4809C0.0689737 17.2913 0.0988616 17.0954 0.135647 16.9066C0.716546 13.9522 2.32053 11.715 4.90315 10.2565C5.17521 10.1026 5.21047 9.88583 5.20817 9.69467C5.20434 9.29759 5.19974 8.84689 5.24878 8.41406C5.47869 6.37815 6.25042 4.61655 7.5425 3.17897C9.4377 1.07002 11.7598 0 14.4428 0C14.8474 0 15.2666 0.0240889 15.6881 0.0730441C17.5527 0.286737 19.2233 1.05836 20.6533 2.36772C22.7608 4.29639 23.8146 6.74182 23.7862 9.63483C23.7831 9.95732 23.8897 10.143 24.1671 10.2961C27.7238 12.2605 29.6328 16.4419 28.8105 20.4648C28.3591 22.6724 27.2034 24.5693 25.4684 25.9501C23.8184 27.2633 21.7615 27.9868 19.6762 27.9868C17.981 27.9868 16.3089 27.5042 14.8421 26.5904C14.7555 26.5368 14.6382 26.4746 14.4949 26.4746C14.3861 26.4746 14.2803 26.5088 14.1615 26.5826C12.6365 27.5229 11.044 28 9.42773 28ZM5.16986 11.6358C2.71291 13.0687 1.19629 15.8537 1.30588 18.7304C1.43233 22.0485 3.06466 24.5421 6.0251 25.9408C7.08114 26.4397 8.1709 26.6922 9.26296 26.693C10.5382 26.693 11.8471 26.3487 13.1538 25.6696L13.4021 25.5406L13.2181 25.3284L13.163 25.264C13.1315 25.2274 13.1093 25.201 13.0856 25.1761C11.2547 23.2514 10.355 20.931 10.411 18.2797C10.4163 18.0077 10.3152 17.8352 10.0715 17.7023C8.93037 17.0822 7.93946 16.2259 7.12636 15.1582C6.36153 14.1535 5.82585 13.0454 5.48865 11.7702L5.41509 11.4936L5.16986 11.6358ZM23.531 11.7267C23.5188 11.7609 23.508 11.7904 23.4981 11.8168C23.4789 11.8689 23.4628 11.914 23.4482 11.9614C22.7125 14.5 21.1768 16.4388 18.8838 17.7225C18.5773 17.8943 18.5819 18.1507 18.5857 18.3201C18.6302 20.6443 17.9159 22.74 16.4621 24.5491C16.3227 24.7231 16.1686 24.8941 16.0207 25.0596C15.9494 25.1396 15.8774 25.2197 15.8069 25.3005L15.6345 25.4971L15.8559 25.6346C16.9403 26.3068 18.3098 26.6767 19.7123 26.6767C21.0105 26.6767 22.2788 26.355 23.38 25.7457C26.2355 24.1667 27.723 21.6218 27.6808 18.3869C27.6441 15.5646 26.3566 13.287 23.8544 11.6164L23.6237 11.4625L23.531 11.7267ZM11.6961 18.7218C11.7873 21.0523 12.6541 22.9708 14.347 24.5879L14.4957 24.7301L14.6443 24.5887C16.3372 22.9786 17.2047 21.06 17.2959 18.7249L17.3074 18.4266L17.0231 18.5035C16.1763 18.7319 15.3241 18.8477 14.4918 18.8477C13.6565 18.8477 12.8074 18.7312 11.9697 18.5012L11.6839 18.4227L11.6961 18.7218ZM14.3493 12.5286C13.0595 13.7339 12.2495 15.1567 11.8716 16.8771L11.828 17.0752L12.0196 17.1351C12.8618 17.3993 13.7009 17.5329 14.514 17.5329C15.3379 17.5329 16.1655 17.3954 16.9756 17.125L17.1634 17.062L17.1197 16.867C16.7334 15.1388 15.9234 13.7199 14.6428 12.5286L14.4957 12.3919L14.3493 12.5286ZM9.30588 10.4453C8.50581 10.4453 7.68427 10.5735 6.86274 10.8269L6.711 10.8735L6.7087 11.0343C6.68494 12.6118 8.78552 15.6369 10.3941 16.3394L10.6256 16.4404L10.6907 16.194C11.1336 14.5086 11.9575 13.0718 13.2105 11.8013L13.4197 11.5892L13.1576 11.4501C11.8969 10.7841 10.6018 10.4453 9.30588 10.4453ZM19.6939 10.4445C18.4033 10.4445 17.1051 10.7833 15.8368 11.4508L15.5739 11.5892L15.7839 11.8021C17.0354 13.0718 17.8607 14.5109 18.3052 16.2018L18.3612 16.4147L18.5711 16.358C18.5849 16.3541 18.5957 16.3518 18.6041 16.3502C18.6332 16.344 18.6723 16.3355 18.7145 16.3083C20.5422 15.1256 21.7423 13.4425 22.2818 11.3055C22.3286 11.1206 22.311 10.8789 21.9638 10.7787C21.202 10.5564 20.4388 10.4445 19.6939 10.4445ZM9.35263 9.12819C11.0118 9.12819 12.6181 9.59365 14.127 10.5114C14.2205 10.5681 14.3478 10.6334 14.5003 10.6334C14.6175 10.6334 14.7325 10.5961 14.8627 10.5152C16.3464 9.59754 17.9519 9.13207 19.6333 9.13207C19.9874 9.13207 20.3506 9.15305 20.7131 9.19346C21.0526 9.23154 21.399 9.29448 21.7339 9.35431C21.8933 9.38307 22.0527 9.41182 22.2129 9.43824L22.4619 9.47942L22.465 9.22299C22.488 7.26479 21.6335 5.2009 20.179 3.70116C18.6953 2.1719 16.689 1.32412 14.5286 1.31402H14.4888C12.3391 1.31402 10.3343 2.15247 8.84454 3.67397C7.35627 5.19313 6.51098 7.22438 6.52477 9.24552L6.5263 9.50895L6.7815 9.46077C6.81062 9.45533 6.83745 9.45067 6.86427 9.44601C6.92175 9.43591 6.97539 9.42658 7.03133 9.41259C7.81761 9.22377 8.59854 9.12819 9.35263 9.12819Z" fill="url(#paint0_linear)"/>
<defs>
<linearGradient id="paint0_linear" x1="-1.33272" y1="36.8667" x2="29.2669" y2="36.1979" gradientUnits="userSpaceOnUse">
<stop stop-color="#60B1FD"/>
<stop offset="0.505208" stop-color="#F49AEA"/>
<stop offset="1" stop-color="#FFB2AE"/>
</linearGradient>
</defs>
</svg>
