<svg width="32" height="33" viewBox="0 0 32 33" fill="none" xmlns="http://www.w3.org/2000/svg">
<path d="M27.0674 29.4504C26.6522 29.447 26.3604 29.2193 26.2011 28.774C25.8678 27.8476 25.3616 27.16 24.6524 26.6743C24.3427 26.4623 23.9859 26.275 23.5269 26.0854C22.8873 25.8207 22.8076 25.455 22.8098 25.1657C22.8132 24.7462 23.0444 24.459 23.5179 24.2863C24.814 23.814 25.7129 22.9167 26.1887 21.6167C26.366 21.1333 26.6499 20.9089 27.0853 20.9089C27.5162 20.9123 27.8035 21.1445 27.9763 21.6167C28.4488 22.9122 29.3465 23.8096 30.646 24.2863C31.133 24.4646 31.3575 24.7529 31.3541 25.1926C31.3507 25.6177 31.1252 25.897 30.646 26.072C29.3364 26.5509 28.4342 27.4595 27.964 28.774C27.8035 29.2216 27.5061 29.4482 27.0786 29.4482L27.0674 29.4504ZM25.3179 25.1757L27.0898 26.9345L28.828 25.1847L27.0842 23.4293L25.3179 25.1757Z" fill="url(#paint0_linear)"/>
<path d="M4.29573 32.9475C3.75596 32.9475 3.22181 32.6873 2.71009 32.1758C2.54512 32.0109 2.38127 31.8449 2.21743 31.68C1.84037 31.2998 1.45101 30.9061 1.056 30.5292C0.612735 30.1063 0.167207 29.6408 0 29.0149V28.2444C0.171696 27.6353 0.614953 27.1922 1.08515 26.7223L1.09748 26.7099C7.54336 20.2727 13.987 13.8321 20.4307 7.39038L25.2606 2.56162C26.0271 1.79552 26.9989 1.37378 27.9976 1.37378C29.0581 1.37378 30.0333 1.84039 30.7448 2.68837C31.8445 3.99959 31.8456 5.97821 30.747 7.29056C30.6202 7.44198 30.4766 7.58892 30.3408 7.72464C22.1869 15.8758 14.033 24.0258 5.87919 32.1758C5.36859 32.6884 4.83551 32.9475 4.29573 32.9475ZM22.142 7.59004L22.1027 7.62481C22.0601 7.66183 22.0107 7.70669 21.9625 7.75492C15.1911 14.523 8.41981 21.29 1.6485 28.0593C1.22318 28.4855 1.22094 28.7861 1.644 29.2101C2.15236 29.7205 2.66182 30.2286 3.17129 30.7378L3.63814 31.2044C3.84238 31.4086 4.03651 31.6026 4.29798 31.6026C4.55945 31.6026 4.75136 31.4108 4.95447 31.2078L6.63327 29.5298C12.7986 23.3674 18.9628 17.2061 25.1304 11.047C25.1461 11.0313 25.2056 11.0055 25.2415 10.9909C25.2797 10.9741 25.3156 10.9584 25.3448 10.9427L25.7218 10.7397L22.3642 7.3859L22.142 7.59004ZM27.909 2.70856C27.3266 2.70856 26.7879 2.94523 26.3099 3.41296C25.9306 3.78423 25.5501 4.1656 25.182 4.53463C24.8689 4.84869 24.557 5.16164 24.2416 5.47234C24.0946 5.61703 23.933 5.755 23.777 5.8896C23.7041 5.95241 23.6323 6.0141 23.5616 6.07579L23.308 6.30013L26.5747 9.56641L26.7991 9.3432C27.0729 9.07176 27.3467 8.80144 27.6205 8.53112C28.2793 7.88055 28.9616 7.20867 29.6192 6.53568C30.0927 6.05224 30.3026 5.41289 30.2117 4.73653C30.0849 3.79657 29.5541 3.14152 28.6776 2.84204C28.4184 2.75455 28.1592 2.70856 27.909 2.70856Z" fill="url(#paint1_linear)"/>
<path d="M12.3453 8.54035C11.9323 8.54035 11.617 8.31713 11.4813 7.92792C11.1491 6.97675 10.6441 6.27571 9.93708 5.78442C9.62286 5.56569 9.25702 5.37277 8.78458 5.17536C8.14717 4.9084 8.0709 4.53713 8.06978 4.28139C8.06754 3.8417 8.29308 3.55455 8.78124 3.37621C10.0931 2.89726 10.9852 2.00553 11.4319 0.726838C11.5441 0.406042 11.7483 0.179466 12.0895 0H12.5978C12.9277 0.164885 13.141 0.436327 13.3261 0.918642C13.7795 2.09975 14.6571 2.93091 15.933 3.38967C16.3729 3.54782 16.6007 3.82936 16.6119 4.22867C16.6243 4.67734 16.3976 4.98692 15.9386 5.1518C14.7603 5.57355 13.903 6.34525 13.3912 7.4456C13.3419 7.55104 13.3037 7.65648 13.2678 7.75855C13.2487 7.81239 13.2285 7.86623 13.2083 7.91894C13.0512 8.31713 12.7471 8.5381 12.3543 8.54147L12.3453 8.54035ZM10.5757 4.27578L12.342 6.02221L14.0937 4.2612L12.3386 2.52711L10.5757 4.27578Z" fill="url(#paint2_linear)"/>
<path d="M6.51092 14.1232C6.41666 14.1221 6.29995 14.0952 6.22589 13.891C6.04971 13.402 5.76916 13.0229 5.39211 12.7638C5.22828 12.6516 5.03975 12.5529 4.80074 12.4531C4.55947 12.3532 4.53929 12.2399 4.54042 12.1412C4.54154 12.0414 4.57186 11.9292 4.78956 11.8496C5.48417 11.5972 5.96558 11.116 6.2203 10.4206C6.29998 10.2008 6.41103 10.1705 6.51876 10.1705C6.62761 10.1716 6.73535 10.2019 6.81502 10.4195C7.06751 11.1127 7.54894 11.5939 8.24467 11.8496C8.47696 11.9348 8.49488 12.0504 8.49376 12.1525C8.49264 12.2568 8.46234 12.3644 8.24352 12.4441C7.54218 12.6998 7.05967 13.1866 6.80719 13.891C6.73425 14.0952 6.6175 14.1221 6.51427 14.1221H6.51092V14.1232Z" fill="url(#paint3_linear)"/>
<defs>
<linearGradient id="paint0_linear" x1="22.4171" y1="32.1552" x2="31.4331" y2="31.9649" gradientUnits="userSpaceOnUse">
<stop stop-color="#60B1FD"/>
<stop offset="0.505208" stop-color="#F49AEA"/>
<stop offset="1" stop-color="#FFB2AE"/>
</linearGradient>
<linearGradient id="paint1_linear" x1="-1.45084" y1="42.9458" x2="31.862" y2="42.2429" gradientUnits="userSpaceOnUse">
<stop stop-color="#60B1FD"/>
<stop offset="0.505208" stop-color="#F49AEA"/>
<stop offset="1" stop-color="#FFB2AE"/>
</linearGradient>
<linearGradient id="paint2_linear" x1="7.67718" y1="11.2463" x2="16.6913" y2="11.056" gradientUnits="userSpaceOnUse">
<stop stop-color="#60B1FD"/>
<stop offset="0.505208" stop-color="#F49AEA"/>
<stop offset="1" stop-color="#FFB2AE"/>
</linearGradient>
<linearGradient id="paint3_linear" x1="4.35869" y1="15.3749" x2="8.53033" y2="15.2869" gradientUnits="userSpaceOnUse">
<stop stop-color="#60B1FD"/>
<stop offset="0.505208" stop-color="#F49AEA"/>
<stop offset="1" stop-color="#FFB2AE"/>
</linearGradient>
</defs>
</svg>
