<svg width="29" height="33" viewBox="0 0 29 33" fill="none" xmlns="http://www.w3.org/2000/svg">
<path d="M1.21907 32.9474C0.616036 32.9474 0.441386 32.775 0.441386 32.1782L0.440358 23.1665C0.440358 15.6983 0.439351 8.23125 0.435242 0.763135C0.435242 0.397891 0.554408 0.161197 0.819454 0H20.7246C20.7944 0.0663152 20.8643 0.13161 20.9341 0.197925C21.1118 0.365244 21.2968 0.538683 21.4724 0.713144C22.1381 1.37323 22.8028 2.03333 23.4675 2.69342C24.8656 4.08196 26.3121 5.51845 27.74 6.92637C27.9619 7.14572 28.0565 7.37221 28.0565 7.68542C28.0523 13.5487 28.0523 19.413 28.0523 25.2763V32.1557C28.0523 32.7842 27.89 32.9474 27.2634 32.9474H14.2412H1.21907ZM1.56117 31.8252H26.9244V8.01904H20.7184C20.1524 8.01904 19.9602 7.82622 19.9592 7.25693C19.9582 6.57745 19.9582 5.89797 19.9582 5.2185V3.86465H16.8259C16.679 3.86465 16.5393 3.86567 16.4006 3.86567C16.2619 3.86669 16.1243 3.86669 15.9856 3.86669C15.7267 3.86669 15.5171 3.86465 15.3261 3.85955C15.059 3.8524 14.8463 3.67386 14.796 3.41574C14.7487 3.17497 14.8843 2.91379 15.097 2.83421C15.2542 2.77606 15.4422 2.76688 15.5891 2.76688C16.2476 2.76381 16.905 2.76279 17.5635 2.76279L19.9387 2.76381V1.12328H1.56014V31.8252H1.56117ZM21.1118 6.89474H25.9957L21.1118 2.04455V6.89474Z" fill="url(#paint0_linear)"/>
<path d="M6.59088 26.5202C6.15633 26.5202 5.70842 26.5172 5.26051 26.511C4.85267 26.5049 4.64206 26.3029 4.63384 25.9111C4.61432 24.994 4.61432 24.09 4.63384 23.2238C4.64309 22.8239 4.83725 22.6535 5.30365 22.6372C5.9334 22.6148 5.99402 22.5638 6.11011 21.9659L6.11522 21.9394C6.76346 18.6032 8.71948 16.3913 11.9288 15.3629C12.3408 15.2313 12.3141 14.9548 12.2956 14.7528C12.2915 14.7079 12.2863 14.661 12.2863 14.612L12.2853 14.4682H10.9929C10.7946 14.4682 10.5974 14.4692 10.3991 14.4692C10.2019 14.4702 10.0036 14.4702 9.80639 14.4702C9.43963 14.4702 9.14273 14.4682 8.87152 14.4631H8.84995C8.58079 14.4631 8.41951 14.5651 8.29212 14.814C7.97982 15.4282 7.29664 15.8567 6.63197 15.8567C6.56211 15.8567 6.49328 15.8516 6.4265 15.8424C5.50397 15.7129 4.8465 15.1446 4.66775 14.3203C4.46845 13.4031 5.00676 12.4338 5.89333 12.1125C6.12037 12.0308 6.3546 11.989 6.59088 11.989C7.30692 11.989 7.95515 12.3777 8.28184 13.0031C8.42258 13.2725 8.59311 13.3776 8.88795 13.3776H8.90749C9.48792 13.3694 10.0714 13.3684 10.5142 13.3684L12.0429 13.3694C12.0726 13.3694 12.0994 13.3643 12.1178 13.3602L12.1312 13.3571L12.2093 13.3439L12.2401 13.2714C12.4774 12.7185 12.5575 12.6675 13.1862 12.6675H14.493C14.7981 12.6675 15.1032 12.6675 15.4083 12.6685C15.9312 12.6695 16.0689 12.7705 16.2281 13.2714L16.26 13.3725L17.7681 13.3735C18.366 13.3735 19.0728 13.3725 19.7888 13.3612C19.9922 13.3582 20.1535 13.0817 20.1833 13.0266C20.5439 12.3655 21.1695 12.0013 21.9462 12.0013C22.0284 12.0013 22.1136 12.0053 22.1979 12.0135C22.8862 12.0788 23.5478 12.6369 23.7707 13.3408C24.0707 14.2856 23.5827 15.3242 22.6601 15.7047C22.4208 15.8037 22.1681 15.8537 21.9102 15.8537C21.1911 15.8537 20.5408 15.466 20.2131 14.8416C20.0703 14.5702 19.9008 14.4641 19.608 14.4641H19.5875C19.2094 14.4702 18.7933 14.4733 18.2787 14.4733C18.0177 14.4733 17.7568 14.4723 17.4969 14.4723C17.2359 14.4712 16.975 14.4712 16.7141 14.4712H16.2405L16.224 14.5967C16.1542 15.1273 16.1747 15.214 16.6442 15.3772L16.6884 15.3925C19.9706 16.5342 21.8927 18.8338 22.4002 22.2271C22.4187 22.3515 22.4629 22.6433 22.8214 22.6433C22.8399 22.6433 22.8584 22.6423 22.879 22.6413C22.956 22.6362 23.0279 22.6331 23.0937 22.6331C23.3937 22.6331 23.5878 22.6882 23.7019 22.8055C23.8375 22.9433 23.8868 23.1861 23.8734 23.6421C23.8601 24.0819 23.8631 24.5277 23.8662 24.9593C23.8683 25.2245 23.8703 25.4898 23.8683 25.755C23.8642 26.3243 23.671 26.5161 23.1029 26.5182C22.6951 26.5192 22.2862 26.5202 21.8784 26.5202C21.4911 26.5202 21.1048 26.5192 20.7175 26.5182C20.1658 26.5161 19.9593 26.307 19.9583 25.7459C19.9562 24.9674 19.9562 24.188 19.9583 23.4095C19.9593 22.8341 20.1443 22.6474 20.7165 22.6403C20.7689 22.6392 20.8202 22.6392 20.8737 22.6392L21.3174 22.6403L21.3072 22.4862C21.262 21.8088 21.1048 21.164 20.8254 20.5161C19.9542 18.493 18.4615 17.131 16.3894 16.4678C16.3401 16.4515 16.2857 16.4444 16.224 16.4444C16.1531 16.4444 16.0843 16.4546 16.0186 16.4638C15.9898 16.4678 15.9621 16.4719 15.9343 16.475C15.8603 16.4831 15.7884 16.4964 15.7196 16.5097C15.621 16.528 15.5275 16.5454 15.4381 16.5464C15.0313 16.5505 14.6255 16.5535 14.2187 16.5535C13.8037 16.5535 13.4236 16.5505 13.0558 16.5454C12.9541 16.5433 12.8483 16.5178 12.7363 16.4913C12.6623 16.474 12.5863 16.4556 12.5082 16.4434C12.4527 16.4342 12.386 16.426 12.3202 16.426C12.2648 16.426 12.2154 16.4321 12.1692 16.4444C9.64202 17.1381 7.56375 19.5224 7.22781 22.1128C7.21857 22.1812 7.20829 22.2495 7.19493 22.3322L7.14665 22.6433H7.31617C7.385 22.6433 7.45177 22.6423 7.5165 22.6413C7.57711 22.6403 7.63669 22.6392 7.69525 22.6392C7.7651 22.6392 7.83497 22.6403 7.9038 22.6443C8.3178 22.6658 8.52222 22.8647 8.52941 23.2524C8.54585 24.1645 8.54585 25.0572 8.52839 25.9081C8.52017 26.2937 8.29828 26.51 7.90277 26.5161C7.47335 26.5172 7.0316 26.5202 6.59088 26.5202ZM5.75157 25.3755H7.38705V23.7482H5.75157V25.3755ZM21.1058 25.3745H22.7413V23.7452H21.1058V25.3745ZM13.44 15.4292H15.0601V13.801H13.44V15.4292ZM6.57546 13.0868C6.14809 13.0868 5.75054 13.4755 5.74026 13.903C5.73513 14.108 5.82142 14.3172 5.97552 14.4763C6.13373 14.6406 6.34844 14.7365 6.56417 14.7396H6.57751C7.02748 14.7396 7.39834 14.3753 7.40348 13.9275C7.40862 13.4796 7.03571 13.0949 6.58883 13.0868H6.57546ZM21.9153 13.0868C21.4787 13.0868 21.0935 13.4735 21.0904 13.9132C21.0894 14.1315 21.1747 14.3386 21.3318 14.4957C21.489 14.6528 21.6955 14.7396 21.9133 14.7406C22.3591 14.7406 22.7506 14.357 22.7526 13.9203C22.7547 13.4877 22.3592 13.0909 21.9225 13.0858H21.9153V13.0868Z" fill="url(#paint1_linear)"/>
<path d="M13.3239 3.86261C13.027 3.86159 12.7763 3.6249 12.765 3.33413C12.7599 3.19538 12.8133 3.05969 12.915 2.95358C13.0198 2.8434 13.1657 2.77912 13.3136 2.77606C13.626 2.77606 13.8849 3.02194 13.889 3.31373C13.891 3.4484 13.8325 3.58511 13.7287 3.69019C13.6198 3.80038 13.4729 3.86261 13.3249 3.86261H13.3239Z" fill="url(#paint2_linear)"/>
<defs>
<linearGradient id="paint0_linear" x1="-0.834115" y1="43.3808" x2="28.3155" y2="42.8651" gradientUnits="userSpaceOnUse">
<stop stop-color="#60B1FD"/>
<stop offset="0.505208" stop-color="#F49AEA"/>
<stop offset="1" stop-color="#FFB2AE"/>
</linearGradient>
<linearGradient id="paint1_linear" x1="3.73426" y1="31.1218" x2="24.0466" y2="30.5537" gradientUnits="userSpaceOnUse">
<stop stop-color="#60B1FD"/>
<stop offset="0.505208" stop-color="#F49AEA"/>
<stop offset="1" stop-color="#FFB2AE"/>
</linearGradient>
<linearGradient id="paint2_linear" x1="12.713" y1="4.20669" x2="13.8994" y2="4.18078" gradientUnits="userSpaceOnUse">
<stop stop-color="#60B1FD"/>
<stop offset="0.505208" stop-color="#F49AEA"/>
<stop offset="1" stop-color="#FFB2AE"/>
</linearGradient>
</defs>
</svg>
