<svg width="33" height="33" viewBox="0 0 33 33" fill="none" xmlns="http://www.w3.org/2000/svg">
<path d="M31.7088 33C21.5688 33 11.4289 33 1.28889 33C0.647186 32.7818 0.217191 32.353 0 31.7115C0 21.5748 0 11.438 0 1.30125C0.349919 0.328586 1.04864 -0.0179323 2.06769 0.000709481C4.44034 0.0423794 6.8141 0.0412831 9.18675 0.00180629C10.1795 -0.0146424 11.0362 0.706905 11.0186 1.8298C10.9934 3.38584 11.012 4.94298 11.0131 6.49902C11.0131 6.60978 11.0219 6.72053 11.0307 6.90695C11.1272 6.74795 11.182 6.66022 11.2347 6.5703C12.0124 5.2248 12.7901 3.8793 13.569 2.5338C14.1547 1.52276 15.0696 1.27384 16.0765 1.85392C18.1936 3.07441 20.3107 4.2971 22.4266 5.51978C23.4358 6.10316 23.6848 7.02099 23.1045 8.02765C22.329 9.37425 21.5491 10.7197 20.7725 12.0652C20.7176 12.1596 20.6683 12.2571 20.6156 12.3536C20.7681 12.3339 20.8701 12.2802 20.9699 12.2221C22.3257 11.4402 23.6804 10.6561 25.0373 9.87538C25.9719 9.33697 26.912 9.58808 27.456 10.5257C28.6978 12.6684 29.9373 14.8122 31.1735 16.9582C31.734 17.9308 31.4806 18.8574 30.5066 19.4211C29.1431 20.2106 27.7774 20.998 26.414 21.7864C26.3295 21.8347 26.2505 21.8928 26.0969 21.9926C26.3086 21.9926 26.426 21.9926 26.5445 21.9926C28.123 21.9926 29.7014 21.9882 31.2799 21.9948C32.2957 21.9991 32.9977 22.7086 32.9988 23.7208C33.001 26.244 32.9999 28.7661 32.9977 31.2893C32.9977 31.4385 32.9867 31.5898 32.9538 31.7346C32.7959 32.4067 32.3187 32.7708 31.7088 33ZM11.6 8.16253C14.1525 9.63523 16.6711 11.0882 19.2082 12.5521C20.2317 10.7779 21.2365 9.04528 22.2292 7.30611C22.4025 7.00235 22.2928 6.72931 21.9484 6.52973C19.7863 5.27853 17.6243 4.03063 15.459 2.78492C15.0487 2.54915 14.8041 2.62372 14.5573 3.04261C14.3072 3.46699 14.0626 3.89575 13.8158 4.32232C13.0819 5.59325 12.3481 6.86418 11.6 8.16253ZM24.8475 21.407C26.5675 20.4124 28.2568 19.4375 29.9439 18.4594C30.4068 18.1907 30.4649 17.9572 30.1918 17.4834C28.9709 15.367 27.7489 13.2517 26.5259 11.1364C26.2472 10.654 26.0114 10.5914 25.5287 10.87C23.9228 11.7977 22.318 12.7254 20.7143 13.6542C20.6342 13.7002 20.5575 13.754 20.4642 13.8143C21.9275 16.3507 23.3788 18.864 24.8475 21.407ZM9.93922 23.1308C9.93922 26.0652 9.93922 28.9745 9.93922 31.8793C12.1375 31.8793 14.3094 31.8793 16.4813 31.8793C16.4813 28.9525 16.4813 26.0488 16.4813 23.1308C14.2984 23.1308 12.1331 23.1308 9.93922 23.1308ZM17.6232 23.1341C17.6232 26.0641 17.6232 28.9756 17.6232 31.8859C19.8159 31.8859 21.9813 31.8859 24.1565 31.8859C24.1565 28.9569 24.1565 26.0455 24.1565 23.1341C21.9637 23.1341 19.7984 23.1341 17.6232 23.1341ZM9.86903 7.67784C9.87671 7.56599 9.88767 7.47278 9.88767 7.37958C9.88877 5.53294 9.88986 3.6863 9.88767 1.83967C9.88657 1.28919 9.70558 1.11264 9.15054 1.11264C6.72305 1.11154 4.29666 1.11154 1.86916 1.11264C1.27902 1.11264 1.09802 1.29357 1.09802 1.88134C1.09693 3.70604 1.09802 5.53184 1.09802 7.35655C1.09802 7.46072 1.10679 7.5649 1.11227 7.67894C4.04216 7.67785 6.94682 7.67784 9.86903 7.67784ZM25.3313 31.9023C25.4728 31.9023 25.5792 31.9023 25.6856 31.9023C27.49 31.9023 29.2934 31.9023 31.0978 31.9023C31.7286 31.9023 31.8997 31.7302 31.8997 31.0985C31.8997 28.7047 31.8997 26.3109 31.8997 23.9171C31.8997 23.2756 31.7428 23.1155 31.1066 23.1155C29.3022 23.1144 27.4988 23.1155 25.6944 23.1155C25.5792 23.1155 25.4651 23.1155 25.3313 23.1155C25.3313 26.0565 25.3313 28.9591 25.3313 31.9023ZM8.76771 23.1155C8.64157 23.1155 8.55601 23.1155 8.47045 23.1155C6.26015 23.1155 4.04985 23.1144 1.83845 23.1166C1.26914 23.1166 1.09802 23.2931 1.09802 23.8721C1.09693 26.2857 1.09693 28.6992 1.09802 31.1128C1.09802 31.7247 1.27461 31.9034 1.87902 31.9034C4.06848 31.9045 6.25686 31.9034 8.44632 31.9034C8.55053 31.9034 8.65473 31.8947 8.76771 31.8903C8.76771 28.9591 8.76771 26.0576 8.76771 23.1155ZM18.6872 13.5347C16.1017 12.0433 13.5821 10.5893 11.0438 9.12423C9.93923 11.0367 8.85328 12.9162 7.75855 14.8133C7.88031 14.89 7.97683 14.9558 8.07665 15.0128C9.32934 15.7366 10.5853 16.4527 11.8303 17.1863C12.0333 17.3058 12.1759 17.3058 12.3777 17.1885C14.3214 16.0557 16.2718 14.9328 18.2199 13.8077C18.3559 13.7288 18.4909 13.6487 18.6872 13.5347ZM1.11117 15.4087C1.23842 15.4087 1.33277 15.4087 1.4282 15.4087C2.89918 15.4087 4.36905 15.4032 5.84003 15.4153C6.06929 15.4175 6.18118 15.333 6.28868 15.1455C7.42948 13.1563 8.57904 11.1726 9.72533 9.18673C9.78237 9.08914 9.82735 8.98387 9.89536 8.84789C6.94243 8.84789 4.03338 8.84789 1.11117 8.84789C1.11117 11.0345 1.11117 13.198 1.11117 15.4087ZM23.9009 21.9926C22.4113 19.4123 20.9567 16.8946 19.4924 14.3571C17.5815 15.4603 15.6937 16.5502 13.7971 17.6446C13.852 17.7499 13.8882 17.8267 13.9299 17.9001C14.6703 19.1798 15.4173 20.4563 16.1467 21.7425C16.2608 21.9432 16.3891 21.9969 16.6041 21.9958C18.8254 21.9893 21.0478 21.9915 23.2691 21.9915C23.4511 21.9926 23.6332 21.9926 23.9009 21.9926ZM3.64618 21.9322C3.66483 21.9662 3.68238 21.9991 3.70102 22.0331C3.8875 21.9772 4.09373 21.9564 4.25827 21.8621C6.41702 20.6251 8.56918 19.3794 10.7224 18.1337C10.8003 18.0887 10.8727 18.0339 10.9725 17.967C9.69243 17.2279 8.45179 16.5119 7.19581 15.787C6.00236 17.853 4.82428 19.8926 3.64618 21.9322ZM6.31171 21.9662C9.25037 21.9662 12.1035 21.9662 15.0005 21.9662C14.2622 20.6909 13.547 19.4551 12.8241 18.2061C10.6522 19.4606 8.51982 20.692 6.31171 21.9662ZM1.11117 22.0452C1.4216 22.0276 1.71997 21.9882 2.01614 21.9991C2.25417 22.0079 2.37703 21.9202 2.49221 21.7184C3.42679 20.0801 4.37344 18.4495 5.31569 16.8156C5.36725 16.7268 5.41114 16.6336 5.46379 16.5305C3.99501 16.5305 2.55472 16.5305 1.11007 16.5305C1.11117 18.387 1.11117 20.2194 1.11117 22.0452Z" fill="url(#paint0_linear)"/>
<defs>
<linearGradient id="paint0_linear" x1="-1.51654" y1="43.45" x2="33.3049" y2="42.7152" gradientUnits="userSpaceOnUse">
<stop stop-color="#60B1FD"/>
<stop offset="0.505208" stop-color="#F49AEA"/>
<stop offset="1" stop-color="#FFB2AE"/>
</linearGradient>
</defs>
</svg>
