<svg width="35" height="44" viewBox="0 0 35 44" fill="none" xmlns="http://www.w3.org/2000/svg">
<path d="M7.1152 28.2415C7.60197 28.2415 8.03142 28.2363 8.45982 28.2425C8.96744 28.2508 9.2322 28.5013 9.23532 28.9982C9.24262 30.3801 9.24262 31.7631 9.23428 33.1451C9.23115 33.6171 8.96431 33.88 8.48588 33.8821C7.09435 33.8893 5.7018 33.8893 4.31028 33.8821C3.81308 33.88 3.5577 33.6129 3.55561 33.1057C3.5504 31.7383 3.54936 30.3708 3.55561 29.0034C3.5577 28.5024 3.81828 28.2508 4.32486 28.2425C4.7543 28.2353 5.18271 28.2415 5.68616 28.2415C5.68616 28.0748 5.68616 27.9206 5.68616 27.7674C5.68616 26.2674 5.66636 24.7675 5.69033 23.2676C5.73932 20.13 7.07351 17.6456 9.61056 15.7885C9.69186 15.7285 9.77213 15.6674 9.9118 15.5639C8.43898 15.5639 7.03182 15.5639 5.62153 15.5639C4.89398 17.1756 3.68904 17.9116 2.28292 17.6C0.883063 17.2895 -0.0154342 16.1674 0.000200822 14.7471C0.0147935 13.4221 0.990427 12.2762 2.35068 12.0381C3.50767 11.8363 4.99092 12.3114 5.62258 14.0991C8.46399 14.0991 11.3137 14.0991 14.2166 14.0991C14.2166 13.6675 14.2135 13.2462 14.2177 12.8238C14.2229 12.2607 14.4658 12.0071 15.0193 12.005C16.3816 11.9998 17.7439 11.9998 19.1063 12.005C19.6389 12.0071 19.8911 12.2617 19.8995 12.7886C19.9057 13.1975 19.9005 13.6064 19.9005 14.0163C23.3402 13.9387 27.3772 10.5817 26.9696 5.64706C26.535 5.64706 26.0951 5.65223 25.6563 5.64602C25.1497 5.63774 24.885 5.3862 24.8829 4.88828C24.8766 3.50635 24.8756 2.12337 24.8839 0.741433C24.8871 0.268365 25.1518 0.00854007 25.6323 0.00543459C27.0238 -0.00181153 28.4164 -0.00181153 29.8079 0.00543459C30.2885 0.00750491 30.5584 0.26733 30.5605 0.737293C30.5688 2.13372 30.5688 3.53119 30.5595 4.92762C30.5563 5.37274 30.2853 5.63153 29.834 5.64292C29.39 5.6543 28.9459 5.64499 28.4414 5.64499C28.5592 9.18834 27.1833 12.005 24.2085 14.0888C25.6657 14.0888 27.0603 14.0888 28.5061 14.0888C28.7812 13.2286 29.3305 12.5505 30.2238 12.1934C30.8346 11.9491 31.4642 11.9305 32.0948 12.1106C33.379 12.4791 34.1972 13.6882 34.1138 15.0794C34.0409 16.3123 33.0089 17.4313 31.7237 17.6218C30.524 17.7998 29.1044 17.2812 28.4956 15.5515C25.6542 15.5515 22.8045 15.5515 19.9016 15.5515C19.9016 15.9831 19.9047 16.4044 19.9005 16.8268C19.8953 17.3868 19.6493 17.6435 19.0979 17.6456C17.7356 17.6508 16.3732 17.6508 15.0109 17.6456C14.4793 17.6435 14.2271 17.3878 14.2198 16.8609C14.2135 16.4521 14.2187 16.0432 14.2187 15.4935C13.4432 15.7057 12.7084 15.8206 12.0444 16.1022C9.03519 17.3785 7.36327 19.6755 7.13917 22.9084C7.01617 24.6629 7.1152 26.431 7.1152 28.2415ZM26.3151 4.20715C27.2803 4.20715 28.2027 4.20715 29.1221 4.20715C29.1221 3.26826 29.1221 2.36249 29.1221 1.43913C28.1777 1.43913 27.2553 1.43913 26.3151 1.43913C26.3151 2.37078 26.3151 3.27551 26.3151 4.20715ZM18.4621 13.446C17.501 13.446 16.5786 13.446 15.6707 13.446C15.6707 14.3952 15.6707 15.3113 15.6707 16.216C16.6192 16.216 17.5313 16.216 18.4621 16.216C18.4621 15.2865 18.4621 14.3817 18.4621 13.446ZM7.78751 32.4577C7.78751 31.5064 7.78751 30.5903 7.78751 29.6855C6.83273 29.6855 5.91026 29.6855 4.99613 29.6855C4.99613 30.6265 4.99613 31.5323 4.99613 32.4577C5.93215 32.4577 6.84316 32.4577 7.78751 32.4577ZM4.26128 14.8403C4.26753 14.0888 3.61503 13.4294 2.85412 13.419C2.1026 13.4077 1.43133 14.0629 1.42195 14.8155C1.41257 15.5649 2.06611 16.2264 2.82806 16.2388C3.5775 16.2492 4.25502 15.5887 4.26128 14.8403ZM31.2776 13.418C30.5167 13.418 29.8611 14.066 29.8548 14.8248C29.8486 15.5711 30.5188 16.2388 31.2714 16.2388C32.0323 16.2378 32.691 15.5856 32.6931 14.831C32.6952 14.0784 32.0333 13.418 31.2776 13.418Z" fill="url(#paint0_linear)"/>
<path d="M20.9805 20C21.1493 20.1325 21.4526 20.2474 21.5267 20.4462C22.4085 22.798 24.3108 24.1386 26.3631 25.3383C26.63 25.4946 26.8979 25.6582 27.1856 25.771C27.6869 25.9667 27.885 26.3352 27.9673 26.8414C28.4353 29.7222 28.9169 32.601 29.412 35.4777C29.4683 35.8038 29.6288 36.1143 29.757 36.4259C30.1604 37.4031 30.5742 38.3751 30.9766 39.3523C31.2163 39.932 31.0808 40.2674 30.495 40.5096C28.3968 41.3771 26.2964 42.2404 24.194 43.0986C23.6562 43.318 23.3372 43.1741 23.0975 42.6348C23.0255 42.4744 22.9463 42.3139 22.8963 42.1462C22.028 39.2177 20.0934 36.9114 18.3631 34.486C17.6533 33.4912 16.9497 32.4923 16.2211 31.511C15.9647 31.1663 15.9616 30.8443 16.0596 30.4417C16.3691 29.1622 16.6839 27.8807 16.8913 26.5826C17.0946 25.3145 16.8622 24.0671 16.3889 22.8705C16.1221 22.1956 16.2399 21.9047 16.9059 21.6293C18.064 21.1501 19.2231 20.6718 20.3832 20.1977C20.5479 20.1304 20.7188 20.0859 20.9805 20ZM17.9983 22.7328C18.1307 23.6841 18.3162 24.5785 18.3683 25.4791C18.4674 27.1861 18.0754 28.831 17.5897 30.4572C17.5376 30.6332 17.5699 30.9002 17.6741 31.0472C19.1803 33.1755 20.7074 35.2883 22.2209 37.4114C22.3772 37.6308 22.5117 37.6733 22.766 37.5667C24.3712 36.8917 25.9806 36.2261 27.5962 35.5792C27.8798 35.4653 27.935 35.3173 27.8891 35.0481C27.4524 32.5172 27.0136 29.9872 26.6018 27.4532C26.5497 27.1302 26.4038 26.977 26.137 26.8372C24.8507 26.1633 23.6405 25.3766 22.5638 24.3953C21.7174 23.6241 21.0222 22.739 20.4989 21.7028C20.2769 21.796 20.0903 21.8736 19.8756 21.9637C20.6886 23.9108 21.4871 25.8342 22.3011 27.7492C22.3418 27.8434 22.5221 27.92 22.6451 27.9335C23.6447 28.0411 24.4192 28.743 24.5828 29.7108C24.7392 30.6321 24.2086 31.601 23.3383 31.9841C22.4502 32.3743 21.4276 32.131 20.8106 31.3826C20.1883 30.628 20.1581 29.5587 20.7772 28.7771C20.97 28.5339 20.994 28.3506 20.8762 28.0732C20.1528 26.3704 19.4472 24.6613 18.7332 22.9543C18.6727 22.8105 18.5987 22.6717 18.5226 22.5123C18.2996 22.6055 18.113 22.6842 17.9983 22.7328ZM24.2034 41.5531C25.9639 40.8274 27.6953 40.1132 29.4401 39.3937C29.0639 38.4973 28.7147 37.666 28.353 36.8058C26.5841 37.5346 24.8663 38.2426 23.1204 38.9621C23.4946 39.8554 23.8428 40.6897 24.2034 41.5531ZM22.4627 30.747C22.8275 30.7522 23.1736 30.4168 23.1777 30.0524C23.1819 29.687 22.8494 29.3516 22.4783 29.3475C22.1052 29.3434 21.7695 29.6674 21.7643 30.0369C21.7581 30.4013 22.0937 30.7419 22.4627 30.747Z" fill="url(#paint1_linear)"/>
<defs>
<linearGradient id="paint0_linear" x1="-1.568" y1="44.6186" x2="34.4347" y2="43.8536" gradientUnits="userSpaceOnUse">
<stop stop-color="#60B1FD"/>
<stop offset="0.505208" stop-color="#F49AEA"/>
<stop offset="1" stop-color="#FFB2AE"/>
</linearGradient>
<linearGradient id="paint1_linear" x1="15.3066" y1="50.5429" x2="31.2326" y2="50.3243" gradientUnits="userSpaceOnUse">
<stop stop-color="#60B1FD"/>
<stop offset="0.505208" stop-color="#F49AEA"/>
<stop offset="1" stop-color="#FFB2AE"/>
</linearGradient>
</defs>
</svg>
