<svg width="33" height="33" viewBox="0 0 33 33" fill="none" xmlns="http://www.w3.org/2000/svg">
<path d="M2.86847 32.7321C2.82985 32.7124 2.77993 32.689 2.71964 32.6759C1.43943 32.4009 0.601006 31.6674 0.157311 30.4334C0.113978 30.3137 0.0800687 30.1902 0.0433296 30.0583C0.0291992 30.0078 0.0150724 29.9572 0 29.9067V8.16473C0.00847825 8.13667 0.0179022 8.1086 0.0273225 8.0796C0.0565253 7.98885 0.086661 7.89436 0.112096 7.798C0.507747 6.3292 1.79175 5.3422 3.30747 5.34033C5.43268 5.33846 7.55883 5.33752 9.68405 5.33752C11.4117 5.33752 17.6253 5.33846 17.6253 5.33846C18.119 5.33846 18.4261 5.60883 18.427 6.04386C18.427 6.25248 18.3554 6.42837 18.2188 6.55279C18.0766 6.68377 17.8712 6.753 17.6272 6.753C15.0442 6.75393 12.4612 6.75393 9.87811 6.75393H3.57028C2.2081 6.75393 1.42622 7.52856 1.42622 8.87855C1.42622 15.6528 1.42622 22.428 1.42622 29.2023C1.42622 30.5438 2.20151 31.3138 3.55238 31.3138H24.017C25.3763 31.3138 26.1563 30.5373 26.1563 29.1835V24.8221C26.1563 21.6225 26.1563 18.4229 26.1573 15.2234C26.1573 14.765 26.4568 14.4188 26.8534 14.4188C26.958 14.4188 27.0635 14.4441 27.1671 14.4927C27.4507 14.6265 27.5826 14.8389 27.5826 15.1616C27.5826 15.9148 27.5826 16.6679 27.5826 17.421V18.6353C27.5826 19.6803 27.5797 20.7244 27.5769 21.7694C27.5703 24.2121 27.5628 26.738 27.5957 29.2219C27.6212 31.1585 26.2053 32.5019 24.8224 32.6815C24.7678 32.689 24.7226 32.7087 24.6887 32.7302H2.86847V32.7321Z" fill="url(#paint0_linear)"/>
<path d="M12.448 21.0937C12.2124 21.0937 12.0099 21.0048 11.8762 20.8429C11.7349 20.6717 11.6859 20.435 11.7377 20.1768C11.8262 19.7371 11.9148 19.2974 12.0024 18.8577C12.2021 17.8548 12.4093 16.8173 12.6298 15.8013C12.6769 15.5861 12.8003 15.3541 12.9444 15.21C17.5594 10.61 22.1282 6.07167 27.5685 0.67359C28.0122 0.23295 28.5331 0 29.0738 0C29.6164 0 30.1402 0.233885 30.5886 0.675461C31.2942 1.37057 31.8349 1.90851 32.3427 2.41838C32.7487 2.82721 32.9465 3.29872 32.9475 3.86192C32.9446 4.3643 32.7817 4.79465 32.4501 5.17448C32.3606 5.27646 32.2635 5.37375 32.1608 5.47573L29.0785 8.53682C25.3867 12.2023 21.5706 15.9922 17.8222 19.7268C17.5302 20.0178 17.2174 20.1815 16.8077 20.2592C15.697 20.4678 14.5704 20.6914 13.4804 20.9075L12.6477 21.0721C12.5798 21.0862 12.513 21.0937 12.448 21.0937ZM26.0217 4.15848C25.9953 4.1931 25.9689 4.22865 25.9435 4.2642C25.8964 4.32969 25.8511 4.3905 25.804 4.43821L24.1489 6.08383C21.0063 9.20854 17.7563 12.4399 14.5468 15.6039C14.1549 15.9903 13.9335 16.416 13.8497 16.9436C13.7979 17.2673 13.7291 17.5966 13.6613 17.9156C13.6227 18.0962 13.585 18.2767 13.5492 18.4582C13.5228 18.5939 13.5021 18.7305 13.4804 18.8746C13.4701 18.9438 13.4588 19.0158 13.4465 19.0925L13.3862 19.4686L13.7621 19.3938C14.0004 19.347 14.235 19.3012 14.4667 19.2553C15.1271 19.1262 15.7507 19.0046 16.3781 18.868C16.5844 18.8231 16.8067 18.6987 16.9716 18.535C20.4976 15.0426 24.0773 11.4866 27.5393 8.04847L28.5275 7.06708C28.5877 7.00721 28.6452 6.94546 28.6989 6.88933L28.762 6.82291L28.941 6.6358L26.2072 3.91992L26.0217 4.15848ZM29.072 1.43325C28.9674 1.43325 28.8091 1.46506 28.6499 1.61849C28.3758 1.88325 28.1035 2.15268 27.8407 2.4137C27.7362 2.51661 27.3405 2.9086 27.3405 2.9086L30.0328 5.58331L30.5387 5.07625C30.7949 4.81991 31.0493 4.56451 31.3036 4.30911C31.5787 4.03125 31.5834 3.69258 31.3149 3.42502C30.7148 2.82814 30.1148 2.23127 29.5138 1.63533C29.347 1.46787 29.1812 1.43325 29.072 1.43325Z" fill="url(#paint1_linear)"/>
<defs>
<linearGradient id="paint0_linear" x1="-1.2682" y1="41.407" x2="27.8509" y2="40.788" gradientUnits="userSpaceOnUse">
<stop stop-color="#60B1FD"/>
<stop offset="0.505208" stop-color="#F49AEA"/>
<stop offset="1" stop-color="#FFB2AE"/>
</linearGradient>
<linearGradient id="paint1_linear" x1="10.7419" y1="27.7733" x2="33.1435" y2="27.2975" gradientUnits="userSpaceOnUse">
<stop stop-color="#60B1FD"/>
<stop offset="0.505208" stop-color="#F49AEA"/>
<stop offset="1" stop-color="#FFB2AE"/>
</linearGradient>
</defs>
</svg>
