<svg width="34" height="33" viewBox="0 0 34 33" fill="none" xmlns="http://www.w3.org/2000/svg">
<path d="M33.4819 1.97586C33.4819 8.25978 33.4819 14.5445 33.4819 20.8285C33.4586 20.8866 33.4311 20.943 33.413 21.002C33.1049 22.027 32.4369 22.6775 31.3592 22.8091C30.7248 22.8861 30.0758 22.8467 29.4328 22.857C29.1367 22.8613 28.8415 22.8579 28.5729 22.8579C28.5411 22.9117 28.5316 22.9203 28.5316 22.9297C28.5273 23.7495 28.5325 24.5701 28.5187 25.3899C28.4989 26.5567 27.6571 27.5791 26.4933 27.7202C25.6687 27.8202 24.8251 27.7715 23.9902 27.7886C23.8551 27.7911 23.7199 27.7886 23.5598 27.7886C23.5598 28.6169 23.5641 29.4034 23.559 30.1898C23.5529 30.9763 23.2921 31.6721 22.6474 32.1423C22.2954 32.3987 21.8512 32.5295 21.4484 32.7167C15.163 32.7167 8.87859 32.7167 2.59328 32.7167C2.52528 32.6919 2.459 32.6611 2.38928 32.6432C1.30385 32.3602 0.536908 31.4114 0.536908 30.3172C0.533464 24.2906 0.533464 18.264 0.537768 12.2382C0.538629 11.0748 1.43124 10.0319 2.5993 9.91218C3.42736 9.82755 4.26833 9.86858 5.10327 9.85405C5.22636 9.85234 5.35031 9.85405 5.49406 9.85405C5.49406 8.98639 5.48717 8.16831 5.49578 7.35023C5.50869 6.16457 6.34622 5.1362 7.52461 4.99173C8.34922 4.89086 9.19191 4.9413 10.0269 4.92505C10.162 4.92249 10.2971 4.92505 10.4555 4.92505C10.4555 4.07363 10.4443 3.26581 10.4581 2.45884C10.4813 1.06631 11.5478 0.00374877 12.9294 0.00289393C18.965 -0.00138026 25.0016 -0.000525424 31.0373 0.00289393C32.1132 0.00374877 33.0248 0.677361 33.3639 1.69291C33.3984 1.78694 33.4431 1.88097 33.4819 1.97586ZM6.81189 9.85234C6.94617 9.85234 7.07098 9.85234 7.19666 9.85234C9.48027 9.85234 11.7647 9.85234 14.0484 9.85234C16.3647 9.85234 18.681 9.84892 20.9965 9.8532C22.3401 9.85576 23.4161 10.6901 23.5065 12.0091C23.6158 13.5991 23.5581 15.2011 23.5426 16.797C23.5392 17.198 23.1518 17.4425 22.7679 17.3689C22.4408 17.3065 22.2523 17.033 22.2506 16.5919C22.2472 15.2079 22.2523 13.8231 22.248 12.4391C22.2454 11.5919 21.8082 11.1577 20.9629 11.1577C15.0116 11.1568 9.06021 11.1568 3.10888 11.1577C2.27652 11.1577 1.81945 11.6133 1.81945 12.4434C1.81859 18.3323 1.81859 24.2213 1.81945 30.1103C1.81945 30.9651 2.28857 31.4285 3.15622 31.4285C9.07571 31.4293 14.9943 31.4293 20.9138 31.4285C21.7935 31.4285 22.2446 30.9848 22.248 30.1163C22.2523 29.1255 22.2489 28.1356 22.2489 27.1449C22.2489 25.984 22.2463 24.8231 22.2506 23.6623C22.2523 23.1417 22.4942 22.8596 22.916 22.8664C23.3222 22.8724 23.5555 23.157 23.559 23.6554C23.5615 24.0384 23.5598 24.4222 23.5598 24.8052C23.5598 25.3565 23.5598 25.9071 23.5598 26.496C24.3311 26.496 25.0687 26.4969 25.8056 26.496C26.798 26.4952 27.2275 26.0644 27.2275 25.0702C27.2275 19.2556 27.2275 13.441 27.2275 7.6272C27.2275 6.63729 26.7972 6.21159 25.7961 6.21159C19.9412 6.21159 14.0862 6.21159 8.23216 6.21244C8.09271 6.21244 7.95241 6.215 7.81555 6.23296C7.26982 6.30562 6.85321 6.6561 6.82394 7.20063C6.77832 8.06915 6.81189 8.94023 6.81189 9.85234ZM28.523 21.5431C29.4389 21.5431 30.3074 21.5611 31.1742 21.5303C31.3876 21.5226 31.6235 21.3901 31.8008 21.2533C32.1305 20.9994 32.1993 20.6225 32.1993 20.2215C32.1959 14.3847 32.1967 8.54871 32.1967 2.71188C32.1967 1.7006 31.7707 1.28002 30.7481 1.28002C25.1066 1.28002 19.466 1.28002 13.8246 1.28002C13.5457 1.28002 13.2668 1.27489 12.9879 1.28088C12.2502 1.29712 11.7845 1.75018 11.7699 2.48107C11.7579 3.05638 11.7673 3.63168 11.7665 4.20613C11.7665 4.43609 11.7665 4.66604 11.7665 4.92163C11.9395 4.92163 12.066 4.92163 12.1925 4.92163C16.74 4.92163 21.2865 4.92163 25.834 4.92163C27.5004 4.92163 28.5221 5.93376 28.523 7.58446C28.523 12.1006 28.523 16.6158 28.523 21.1319C28.523 21.2585 28.523 21.3841 28.523 21.5431Z" fill="url(#paint0_linear)"/>
<path d="M22.91 20.773C22.5425 20.7764 22.2662 20.5028 22.2636 20.1327C22.261 19.7882 22.5356 19.5044 22.8833 19.4933C23.2337 19.4813 23.5496 19.7779 23.5547 20.1224C23.559 20.4772 23.2698 20.7695 22.91 20.773Z" fill="url(#paint1_linear)"/>
<defs>
<linearGradient id="paint0_linear" x1="-0.979705" y1="43.077" x2="33.786" y2="42.3382" gradientUnits="userSpaceOnUse">
<stop stop-color="#60B1FD"/>
<stop offset="0.505208" stop-color="#F49AEA"/>
<stop offset="1" stop-color="#FFB2AE"/>
</linearGradient>
<linearGradient id="paint1_linear" x1="22.2042" y1="21.1784" x2="23.5667" y2="21.1494" gradientUnits="userSpaceOnUse">
<stop stop-color="#60B1FD"/>
<stop offset="0.505208" stop-color="#F49AEA"/>
<stop offset="1" stop-color="#FFB2AE"/>
</linearGradient>
</defs>
</svg>
